<?xml version="1.0" encoding="UTF-8"?>
<svg width="833px" height="452px" viewBox="0 0 833 452" version="1.1" xmlns="http://www.w3.org/2000/svg" xmlns:xlink="http://www.w3.org/1999/xlink">
    <title>Group</title>
    <defs>
        <linearGradient x1="84.0874216%" y1="37.6133382%" x2="10.5897923%" y2="59.5246443%" id="linearGradient-1">
            <stop stop-color="#8E4596" offset="0%"></stop>
            <stop stop-color="#3B3B5A" offset="100%"></stop>
        </linearGradient>
        <rect id="path-2" x="0" y="0" width="832" height="452" rx="36"></rect>
    </defs>
    <g id="services" stroke="none" stroke-width="1" fill="none" fill-rule="evenodd">
        <g id="Desktop-HD" transform="translate(-165.000000, -704.000000)">
            <g id="Group" transform="translate(165.500000, 704.000000)">
                <g id="Rectangle">
                    <use fill="#D8D8D8" xlink:href="#path-2"></use>
                    <use fill="url(#linearGradient-1)" xlink:href="#path-2"></use>
                </g>
                <g id="shaack.com" transform="translate(301.392578, 200.447266)" fill="#FFFFFF" fill-rule="nonzero">
                    <path d="M12.8359375,18.5273438 C12.8359375,19.6777344 12.5659993,20.6490072 12.026123,21.4411621 C11.4862467,22.2333171 10.6814779,22.8337402 9.61181641,23.2424316 C8.54215495,23.651123 7.2101237,23.8554688 5.61572266,23.8554688 C4.43505859,23.8554688 3.42342122,23.7797852 2.58081055,23.628418 C1.73819987,23.4770508 0.888020833,23.2247721 0.0302734375,22.871582 L0.0302734375,19.0571289 C0.948567708,19.4708659 1.93497721,19.8114421 2.98950195,20.0788574 C4.04402669,20.3462728 4.96988932,20.4799805 5.76708984,20.4799805 C6.66520182,20.4799805 7.30851237,20.3462728 7.69702148,20.0788574 C8.0855306,19.8114421 8.27978516,19.4607747 8.27978516,19.0268555 C8.27978516,18.7443034 8.20157878,18.489502 8.04516602,18.2624512 C7.88875326,18.0354004 7.55322266,17.7780762 7.03857422,17.4904785 C6.52392578,17.2028809 5.71663411,16.8269857 4.61669922,16.362793 C3.55712891,15.9187826 2.68676758,15.4697266 2.00561523,15.015625 C1.32446289,14.5615234 0.819905599,14.0241699 0.491943359,13.4035645 C0.16398112,12.782959 0,11.9933268 0,11.034668 C0,9.47054036 0.607991536,8.29239909 1.82397461,7.50024414 C3.03995768,6.70808919 4.66715495,6.31201172 6.70556641,6.31201172 C7.75504557,6.31201172 8.7565918,6.41796875 9.71020508,6.62988281 C10.6638184,6.84179688 11.6451823,7.17985026 12.6542969,7.64404297 L11.2617188,10.9741211 C10.4241536,10.6108398 9.63452148,10.313151 8.89282227,10.0810547 C8.15112305,9.84895833 7.3968099,9.73291016 6.62988281,9.73291016 C5.95377604,9.73291016 5.44417318,9.82373047 5.10107422,10.0053711 C4.75797526,10.1870117 4.58642578,10.4645182 4.58642578,10.8378906 C4.58642578,11.1103516 4.67472331,11.3525391 4.85131836,11.5644531 C5.02791341,11.7763672 5.37101237,12.0109863 5.88061523,12.2683105 C6.3902181,12.5256348 7.13948568,12.8561198 8.12841797,13.2597656 C9.08707682,13.6533203 9.91959635,14.0645345 10.6259766,14.4934082 C11.3323568,14.9222819 11.8772786,15.4520671 12.2607422,16.0827637 C12.6442057,16.7134603 12.8359375,17.5283203 12.8359375,18.5273438 Z" id="Path"></path>
                    <path d="M21.6608476,0 L21.6608476,4.79833984 C21.6608476,5.63590495 21.6330969,6.43310547 21.5775956,7.18994141 C21.5220943,7.94677734 21.479207,8.48160807 21.4489335,8.79443359 L21.691121,8.79443359 C22.0544023,8.20914714 22.4857988,7.73486328 22.9853105,7.37158203 C23.4848222,7.00830078 24.0373124,6.74088542 24.6427812,6.56933594 C25.2482499,6.39778646 25.8991288,6.31201172 26.5954179,6.31201172 C27.8164465,6.31201172 28.8810624,6.52644857 29.7892655,6.95532227 C30.6974687,7.38419596 31.4038489,8.05525716 31.9084062,8.96850586 C32.4129635,9.88175456 32.6652421,11.0649414 32.6652421,12.5180664 L32.6652421,23.5527344 L28.0485429,23.5527344 L28.0485429,13.668457 C28.0485429,12.4575195 27.8265377,11.5442708 27.3825273,10.9287109 C26.9385169,10.313151 26.2523189,10.0053711 25.3239335,10.0053711 C24.3955481,10.0053711 23.66394,10.2198079 23.1291093,10.6486816 C22.5942786,11.0775553 22.2158606,11.708252 21.9938554,12.5407715 C21.7718502,13.373291 21.6608476,14.389974 21.6608476,15.5908203 L21.6608476,23.5527344 L17.0441484,23.5527344 L17.0441484,0 L21.6608476,0 Z" id="Path"></path>
                    <path d="M44.9564608,6.28173828 C47.2269686,6.28173828 48.9676913,6.77620443 50.1786288,7.76513672 C51.3895663,8.75406901 51.995035,10.2576497 51.995035,12.2758789 L51.995035,23.5527344 L48.7709139,23.5527344 L47.8778475,21.2519531 L47.7567538,21.2519531 C47.2723788,21.8574219 46.7779126,22.351888 46.2733553,22.7353516 C45.768798,23.1188151 45.1885571,23.4013672 44.5326327,23.5830078 C43.8767082,23.7646484 43.0795077,23.8554688 42.1410311,23.8554688 C41.1420077,23.8554688 40.2464185,23.663737 39.4542635,23.2802734 C38.6621086,22.8968099 38.0389803,22.3090007 37.5848788,21.5168457 C37.1307772,20.7246908 36.9037264,19.718099 36.9037264,18.4970703 C36.9037264,16.7008464 37.534423,15.3763835 38.7958163,14.5236816 C40.0572095,13.6709798 41.9492993,13.1992188 44.4720858,13.1083984 L47.4086092,13.0175781 L47.4086092,12.2758789 C47.4086092,11.3878581 47.1765129,10.7369792 46.7123202,10.3232422 C46.2481275,9.90950521 45.6022941,9.70263672 44.7748202,9.70263672 C43.9574374,9.70263672 43.1551913,9.8186849 42.3680819,10.0507812 C41.5809725,10.2828776 40.7938631,10.5755208 40.0067538,10.9287109 L38.4779452,7.81054688 C39.3760571,7.33626302 40.3826489,6.96289062 41.4977206,6.69042969 C42.6127922,6.41796875 43.7657056,6.28173828 44.9564608,6.28173828 Z M47.4086092,15.7119141 L45.6224764,15.7724609 C44.1289868,15.8128255 43.0921216,16.0802409 42.5118807,16.574707 C41.9316398,17.0691732 41.6415194,17.7200521 41.6415194,18.5273438 C41.6415194,19.233724 41.8483879,19.7357585 42.2621249,20.0334473 C42.6758618,20.3311361 43.2157381,20.4799805 43.8817538,20.4799805 C44.870686,20.4799805 45.7057284,20.1873372 46.3868807,19.6020508 C47.0680331,19.0167643 47.4086092,18.1842448 47.4086092,17.1044922 L47.4086092,15.7119141 Z" id="Shape"></path>
                    <path d="M64.2862537,6.28173828 C66.5567615,6.28173828 68.2974842,6.77620443 69.5084217,7.76513672 C70.7193592,8.75406901 71.3248279,10.2576497 71.3248279,12.2758789 L71.3248279,23.5527344 L68.1007068,23.5527344 L67.2076404,21.2519531 L67.0865467,21.2519531 C66.6021717,21.8574219 66.1077055,22.351888 65.6031482,22.7353516 C65.0985909,23.1188151 64.51835,23.4013672 63.8624256,23.5830078 C63.2065011,23.7646484 62.4093006,23.8554688 61.470824,23.8554688 C60.4718006,23.8554688 59.5762114,23.663737 58.7840564,23.2802734 C57.9919015,22.8968099 57.3687732,22.3090007 56.9146717,21.5168457 C56.4605701,20.7246908 56.2335193,19.718099 56.2335193,18.4970703 C56.2335193,16.7008464 56.8642159,15.3763835 58.1256092,14.5236816 C59.3870024,13.6709798 61.2790922,13.1992188 63.8018787,13.1083984 L66.7384021,13.0175781 L66.7384021,12.2758789 C66.7384021,11.3878581 66.5063058,10.7369792 66.0421131,10.3232422 C65.5779203,9.90950521 64.932087,9.70263672 64.1046131,9.70263672 C63.2872302,9.70263672 62.4849842,9.8186849 61.6978748,10.0507812 C60.9107654,10.2828776 60.123656,10.5755208 59.3365467,10.9287109 L57.8077381,7.81054688 C58.70585,7.33626302 59.7124418,6.96289062 60.8275134,6.69042969 C61.9425851,6.41796875 63.0954985,6.28173828 64.2862537,6.28173828 Z M66.7384021,15.7119141 L64.9522693,15.7724609 C63.4587797,15.8128255 62.4219145,16.0802409 61.8416736,16.574707 C61.2614327,17.0691732 60.9713123,17.7200521 60.9713123,18.5273438 C60.9713123,19.233724 61.1781808,19.7357585 61.5919177,20.0334473 C62.0056547,20.3311361 62.545531,20.4799805 63.2115467,20.4799805 C64.2004789,20.4799805 65.0355213,20.1873372 65.7166736,19.6020508 C66.3978259,19.0167643 66.7384021,18.1842448 66.7384021,17.1044922 L66.7384021,15.7119141 Z" id="Shape"></path>
                    <path d="M83.5554997,23.8554688 C81.8803695,23.8554688 80.4524724,23.5502116 79.2718083,22.9396973 C78.0911442,22.3291829 77.1930323,21.383138 76.5774724,20.1015625 C75.9619125,18.819987 75.6541325,17.1801758 75.6541325,15.1821289 C75.6541325,13.113444 76.0047998,11.4256999 76.7061345,10.1188965 C77.4074691,8.8120931 78.3812647,7.85091146 79.6275212,7.23535156 C80.8737777,6.61979167 82.3193343,6.31201172 83.9641911,6.31201172 C85.134764,6.31201172 86.1464014,6.42553711 86.9991032,6.65258789 C87.851805,6.87963867 88.596027,7.14957682 89.2317692,7.46240234 L87.8694645,11.034668 C87.142902,10.7420247 86.4667953,10.50236 85.8411442,10.3156738 C85.2154932,10.1289876 84.5898421,10.0356445 83.9641911,10.0356445 C83.1568994,10.0356445 82.4858382,10.2248535 81.9510075,10.6032715 C81.4161768,10.9816895 81.0175765,11.5493164 80.7552067,12.3061523 C80.4928369,13.0629883 80.361652,14.011556 80.361652,15.1518555 C80.361652,16.2719727 80.5029281,17.2003581 80.7854802,17.9370117 C81.0680323,18.6736654 81.4767237,19.22111 82.0115544,19.5793457 C82.5463851,19.9375814 83.197264,20.1166992 83.9641911,20.1166992 C84.92285,20.1166992 85.7755518,19.9880371 86.5222966,19.7307129 C87.2690414,19.4733887 87.9956039,19.1126302 88.7019841,18.6484375 L88.7019841,22.5991211 C87.9956039,23.0431315 87.2564274,23.3635254 86.4844548,23.5603027 C85.7124821,23.7570801 84.7361638,23.8554688 83.5554997,23.8554688 Z" id="Path"></path>
                    <path d="M97.8447653,0 L97.8447653,10.5351562 C97.8447653,11.1708984 97.8195374,11.8066406 97.7690817,12.4423828 C97.7186259,13.078125 97.6631246,13.7138672 97.6025778,14.3496094 L97.6631246,14.3496094 C97.9759501,13.905599 98.296344,13.4666341 98.6243063,13.0327148 C98.9522685,12.5987956 99.3029358,12.180013 99.6763082,11.7763672 L104.414101,6.62988281 L109.621132,6.62988281 L102.900429,13.9711914 L110.029824,23.5527344 L104.701699,23.5527344 L99.8276754,16.6958008 L97.8447653,18.2851562 L97.8447653,23.5527344 L93.228066,23.5527344 L93.228066,0 L97.8447653,0 Z" id="Path"></path>
                    <path d="M112.406492,21.3881836 C112.406492,20.4396159 112.666339,19.7736003 113.186033,19.3901367 C113.705727,19.0066732 114.333901,18.8149414 115.070554,18.8149414 C115.787026,18.8149414 116.405108,19.0066732 116.924802,19.3901367 C117.444496,19.7736003 117.704343,20.4396159 117.704343,21.3881836 C117.704343,22.2963867 117.444496,22.9523112 116.924802,23.355957 C116.405108,23.7596029 115.787026,23.9614258 115.070554,23.9614258 C114.333901,23.9614258 113.705727,23.7596029 113.186033,23.355957 C112.666339,22.9523112 112.406492,22.2963867 112.406492,21.3881836 Z" id="Path"></path>
                    <path d="M129.374957,23.8554688 C127.699826,23.8554688 126.271929,23.5502116 125.091265,22.9396973 C123.910601,22.3291829 123.012489,21.383138 122.396929,20.1015625 C121.781369,18.819987 121.473589,17.1801758 121.473589,15.1821289 C121.473589,13.113444 121.824257,11.4256999 122.525591,10.1188965 C123.226926,8.8120931 124.200721,7.85091146 125.446978,7.23535156 C126.693235,6.61979167 128.138791,6.31201172 129.783648,6.31201172 C130.954221,6.31201172 131.965858,6.42553711 132.81856,6.65258789 C133.671262,6.87963867 134.415484,7.14957682 135.051226,7.46240234 L133.688921,11.034668 C132.962359,10.7420247 132.286252,10.50236 131.660601,10.3156738 C131.03495,10.1289876 130.409299,10.0356445 129.783648,10.0356445 C128.976356,10.0356445 128.305295,10.2248535 127.770464,10.6032715 C127.235634,10.9816895 126.837033,11.5493164 126.574664,12.3061523 C126.312294,13.0629883 126.181109,14.011556 126.181109,15.1518555 C126.181109,16.2719727 126.322385,17.2003581 126.604937,17.9370117 C126.887489,18.6736654 127.29618,19.22111 127.831011,19.5793457 C128.365842,19.9375814 129.016721,20.1166992 129.783648,20.1166992 C130.742307,20.1166992 131.595009,19.9880371 132.341753,19.7307129 C133.088498,19.4733887 133.815061,19.1126302 134.521441,18.6484375 L134.521441,22.5991211 C133.815061,23.0431315 133.075884,23.3635254 132.303912,23.5603027 C131.531939,23.7570801 130.555621,23.8554688 129.374957,23.8554688 Z" id="Path"></path>
                    <path d="M154.426429,15.0610352 C154.426429,16.4737956 154.23722,17.7250977 153.858802,18.8149414 C153.480384,19.9047852 152.930417,20.8256022 152.2089,21.5773926 C151.487383,22.3291829 150.619544,22.8968099 149.605384,23.2802734 C148.591224,23.663737 147.448402,23.8554688 146.176917,23.8554688 C144.986162,23.8554688 143.893796,23.663737 142.899818,23.2802734 C141.90584,22.8968099 141.043047,22.3291829 140.311439,21.5773926 C139.579831,20.8256022 139.014727,19.9047852 138.616126,18.8149414 C138.217526,17.7250977 138.018226,16.4737956 138.018226,15.0610352 C138.018226,13.184082 138.351234,11.5947266 139.017249,10.2929688 C139.683265,8.99121094 140.631833,8.00227865 141.862953,7.32617188 C143.094072,6.6500651 144.562334,6.31201172 146.267738,6.31201172 C147.852048,6.31201172 149.25724,6.6500651 150.483314,7.32617188 C151.709388,8.00227865 152.673092,8.99121094 153.374427,10.2929688 C154.075762,11.5947266 154.426429,13.184082 154.426429,15.0610352 Z M142.725745,15.0610352 C142.725745,16.1710612 142.846839,17.1044922 143.089027,17.8613281 C143.331214,18.6181641 143.709632,19.1883138 144.224281,19.5717773 C144.738929,19.9552409 145.40999,20.1469727 146.237464,20.1469727 C147.054847,20.1469727 147.71834,19.9552409 148.227943,19.5717773 C148.737546,19.1883138 149.110918,18.6181641 149.34806,17.8613281 C149.585202,17.1044922 149.703773,16.1710612 149.703773,15.0610352 C149.703773,13.940918 149.585202,13.0100098 149.34806,12.2683105 C149.110918,11.5266113 148.735023,10.9690755 148.220374,10.5957031 C147.705726,10.2223307 147.034665,10.0356445 146.207191,10.0356445 C144.986162,10.0356445 144.100664,10.4544271 143.550697,11.2919922 C143.000729,12.1295573 142.725745,13.3859049 142.725745,15.0610352 Z" id="Shape"></path>
                    <path d="M178.721066,6.31201172 C180.638383,6.31201172 182.088986,6.80395508 183.072872,7.7878418 C184.056759,8.77172852 184.548702,10.3484701 184.548702,12.5180664 L184.548702,23.5527344 L179.916867,23.5527344 L179.916867,13.668457 C179.916867,12.4575195 179.709998,11.5442708 179.296261,10.9287109 C178.882524,10.313151 178.241736,10.0053711 177.373898,10.0053711 C176.152869,10.0053711 175.285031,10.4418132 174.770382,11.3146973 C174.255734,12.1875814 173.998409,13.4363607 173.998409,15.0610352 L173.998409,23.5527344 L169.38171,23.5527344 L169.38171,13.668457 C169.38171,12.8611654 169.29089,12.1850586 169.109249,11.6401367 C168.927609,11.0952148 168.650102,10.6865234 168.27673,10.4140625 C167.903357,10.1416016 167.424028,10.0053711 166.838742,10.0053711 C165.980994,10.0053711 165.30741,10.2198079 164.81799,10.6486816 C164.328569,11.0775553 163.980424,11.708252 163.773556,12.5407715 C163.566687,13.373291 163.463253,14.389974 163.463253,15.5908203 L163.463253,23.5527344 L158.846554,23.5527344 L158.846554,6.62988281 L162.373409,6.62988281 L162.994015,8.79443359 L163.251339,8.79443359 C163.594438,8.20914714 164.025835,7.73486328 164.545529,7.37158203 C165.065223,7.00830078 165.637895,6.74088542 166.263546,6.56933594 C166.889197,6.39778646 167.524939,6.31201172 168.170773,6.31201172 C169.411984,6.31201172 170.463986,6.51383464 171.326779,6.91748047 C172.189572,7.3211263 172.853064,7.94677734 173.317257,8.79443359 L173.725949,8.79443359 C174.230506,7.92659505 174.944454,7.29589844 175.867794,6.90234375 C176.791134,6.50878906 177.742225,6.31201172 178.721066,6.31201172 Z" id="Path"></path>
                </g>
                <g id="consulting" transform="translate(444.781250, 60.687500)" fill="#FFFFFF" fill-rule="nonzero">
                    <path d="M7.8125,24.625 C6.27083333,24.625 4.91145833,24.3072917 3.734375,23.671875 C2.55729167,23.0364583 1.640625,22.0677083 0.984375,20.765625 C0.328125,19.4635417 5.68434189e-14,17.8229167 5.68434189e-14,15.84375 C5.68434189e-14,13.7708333 0.346354167,12.0755208 1.0390625,10.7578125 C1.73177083,9.44010417 2.6875,8.46354167 3.90625,7.828125 C5.125,7.19270833 6.51041667,6.875 8.0625,6.875 C8.91666667,6.875 9.7421875,6.9609375 10.5390625,7.1328125 C11.3359375,7.3046875 11.9895833,7.52083333 12.5,7.78125 L11.71875,9.953125 C11.1979167,9.74479167 10.5963542,9.55729167 9.9140625,9.390625 C9.23177083,9.22395833 8.59375,9.140625 8,9.140625 C6.8125,9.140625 5.82552083,9.39583333 5.0390625,9.90625 C4.25260417,10.4166667 3.6640625,11.1666667 3.2734375,12.15625 C2.8828125,13.1458333 2.6875,14.3645833 2.6875,15.8125 C2.6875,17.1979167 2.87760417,18.3802083 3.2578125,19.359375 C3.63802083,20.3385417 4.20572917,21.0859375 4.9609375,21.6015625 C5.71614583,22.1171875 6.66145833,22.375 7.796875,22.375 C8.703125,22.375 9.52083333,22.2786458 10.25,22.0859375 C10.9791667,21.8932292 11.640625,21.6666667 12.234375,21.40625 L12.234375,23.71875 C11.6614583,24.0104167 11.0234375,24.234375 10.3203125,24.390625 C9.6171875,24.546875 8.78125,24.625 7.8125,24.625 Z" id="Path"></path>
                    <path d="M31.6720846,15.71875 C31.6720846,17.125 31.4897929,18.3802083 31.1252096,19.484375 C30.7606263,20.5885417 30.2345846,21.5208333 29.5470846,22.28125 C28.8595846,23.0416667 28.0288554,23.6223958 27.0548971,24.0234375 C26.0809388,24.4244792 24.9793763,24.625 23.7502096,24.625 C22.6043763,24.625 21.5548971,24.4244792 20.6017721,24.0234375 C19.6486471,23.6223958 18.8257304,23.0416667 18.1330221,22.28125 C17.4403138,21.5208333 16.9038554,20.5885417 16.5236471,19.484375 C16.1434388,18.3802083 15.9533346,17.125 15.9533346,15.71875 C15.9533346,13.84375 16.2710429,12.2473958 16.9064596,10.9296875 C17.5418763,9.61197917 18.4507304,8.60677083 19.6330221,7.9140625 C20.8153138,7.22135417 22.2241679,6.875 23.8595846,6.875 C25.4220846,6.875 26.7892721,7.22395833 27.9611471,7.921875 C29.1330221,8.61979167 30.0444804,9.62760417 30.6955221,10.9453125 C31.3465638,12.2630208 31.6720846,13.8541667 31.6720846,15.71875 Z M18.6408346,15.71875 C18.6408346,17.09375 18.8231263,18.2864583 19.1877096,19.296875 C19.5522929,20.3072917 20.1147929,21.0885417 20.8752096,21.640625 C21.6356263,22.1927083 22.6147929,22.46875 23.8127096,22.46875 C25.0002096,22.46875 25.9767721,22.1927083 26.7423971,21.640625 C27.5080221,21.0885417 28.0731263,20.3072917 28.4377096,19.296875 C28.8022929,18.2864583 28.9845846,17.09375 28.9845846,15.71875 C28.9845846,14.3541667 28.8022929,13.1744792 28.4377096,12.1796875 C28.0731263,11.1848958 27.5106263,10.4166667 26.7502096,9.875 C25.9897929,9.33333333 25.0054179,9.0625 23.7970846,9.0625 C22.0158346,9.0625 20.7111471,9.65104167 19.8830221,10.828125 C19.0548971,12.0052083 18.6408346,13.6354167 18.6408346,15.71875 Z" id="Shape"></path>
                    <path d="M44.8910442,6.875 C46.9222942,6.875 48.4587525,7.37239583 49.5004192,8.3671875 C50.5420859,9.36197917 51.0629192,10.9583333 51.0629192,13.15625 L51.0629192,24.3125 L48.5004192,24.3125 L48.5004192,13.328125 C48.5004192,11.9010417 48.1748984,10.8333333 47.5238567,10.125 C46.872815,9.41666667 45.8754192,9.0625 44.5316692,9.0625 C42.6358359,9.0625 41.3025025,9.59895833 40.5316692,10.671875 C39.7608359,11.7447917 39.3754192,13.3020833 39.3754192,15.34375 L39.3754192,24.3125 L36.7816692,24.3125 L36.7816692,7.1875 L38.8754192,7.1875 L39.2660442,9.65625 L39.4066692,9.65625 C39.7712525,9.05208333 40.2347942,8.54427083 40.7972942,8.1328125 C41.3597942,7.72135417 41.9900025,7.40885417 42.6879192,7.1953125 C43.3858359,6.98177083 44.1202109,6.875 44.8910442,6.875 Z" id="Path"></path>
                    <path d="M68.1100038,19.625 C68.1100038,20.71875 67.8365663,21.6380208 67.2896913,22.3828125 C66.7428163,23.1276042 65.9615663,23.6875 64.9459413,24.0625 C63.9303163,24.4375 62.7193788,24.625 61.3131288,24.625 C60.1152121,24.625 59.0787538,24.53125 58.2037538,24.34375 C57.3287538,24.15625 56.5631288,23.890625 55.9068788,23.546875 L55.9068788,21.15625 C56.6047955,21.5 57.4381288,21.8125 58.4068788,22.09375 C59.3756288,22.375 60.3652121,22.515625 61.3756288,22.515625 C62.8547955,22.515625 63.9277121,22.2760417 64.5943788,21.796875 C65.2610455,21.3177083 65.5943788,20.6666667 65.5943788,19.84375 C65.5943788,19.375 65.4615663,18.9609375 65.1959413,18.6015625 C64.9303163,18.2421875 64.4850038,17.8932292 63.8600038,17.5546875 C63.2350038,17.2161458 62.3704205,16.84375 61.2662538,16.4375 C60.1725038,16.0208333 59.2271913,15.6067708 58.4303163,15.1953125 C57.6334413,14.7838542 57.018858,14.28125 56.5865663,13.6875 C56.1542746,13.09375 55.9381288,12.3229167 55.9381288,11.375 C55.9381288,9.92708333 56.5240663,8.81510417 57.6959413,8.0390625 C58.8678163,7.26302083 60.4068788,6.875 62.3131288,6.875 C63.3443788,6.875 64.3105246,6.9765625 65.2115663,7.1796875 C66.112608,7.3828125 66.9537538,7.65625 67.7350038,8 L66.8600038,10.078125 C66.1516705,9.77604167 65.3964621,9.52083333 64.5943788,9.3125 C63.7922955,9.10416667 62.9745871,9 62.1412538,9 C60.9433371,9 60.0240663,9.19791667 59.3834413,9.59375 C58.7428163,9.98958333 58.4225038,10.53125 58.4225038,11.21875 C58.4225038,11.75 58.5709413,12.1875 58.8678163,12.53125 C59.1646913,12.875 59.6412538,13.1979167 60.2975038,13.5 C60.9537538,13.8020833 61.8183371,14.15625 62.8912538,14.5625 C63.9641705,14.9583333 64.8912538,15.3671875 65.6725038,15.7890625 C66.4537538,16.2109375 67.0553163,16.7213542 67.4771913,17.3203125 C67.8990663,17.9192708 68.1100038,18.6875 68.1100038,19.625 Z" id="Path"></path>
                    <path d="M87.0477134,7.1875 L87.0477134,24.3125 L84.9227134,24.3125 L84.5477134,21.90625 L84.4070884,21.90625 C84.0529217,22.5 83.5945884,23 83.0320884,23.40625 C82.4695884,23.8125 81.8367759,24.1171875 81.1336509,24.3203125 C80.4305259,24.5234375 79.6831301,24.625 78.8914634,24.625 C77.5372967,24.625 76.4018801,24.40625 75.4852134,23.96875 C74.5685467,23.53125 73.8784426,22.8541667 73.4149009,21.9375 C72.9513592,21.0208333 72.7195884,19.84375 72.7195884,18.40625 L72.7195884,7.1875 L75.3445884,7.1875 L75.3445884,18.21875 C75.3445884,19.6458333 75.6675051,20.7109375 76.3133384,21.4140625 C76.9591717,22.1171875 77.9435467,22.46875 79.2664634,22.46875 C80.5372967,22.46875 81.5503176,22.2291667 82.3055259,21.75 C83.0607342,21.2708333 83.6050051,20.5651042 83.9383384,19.6328125 C84.2716717,18.7005208 84.4383384,17.5572917 84.4383384,16.203125 L84.4383384,7.1875 L87.0477134,7.1875 Z" id="Path"></path>
                    <polygon id="Path" points="95.766673 24.3125 93.157298 24.3125 93.157298 0 95.766673 0"></polygon>
                    <path d="M107.391883,22.5 C107.818966,22.5 108.256466,22.4635417 108.704383,22.390625 C109.152299,22.3177083 109.516883,22.2291667 109.798133,22.125 L109.798133,24.140625 C109.496049,24.2760417 109.076778,24.390625 108.54032,24.484375 C108.003862,24.578125 107.480424,24.625 106.970008,24.625 C106.063758,24.625 105.240841,24.4661458 104.501258,24.1484375 C103.761674,23.8307292 103.170528,23.2916667 102.72782,22.53125 C102.285112,21.7708333 102.063758,20.71875 102.063758,19.375 L102.063758,9.21875 L99.6262576,9.21875 L99.6262576,7.953125 L102.079383,6.9375 L103.110633,3.21875 L104.673133,3.21875 L104.673133,7.1875 L109.688758,7.1875 L109.688758,9.21875 L104.673133,9.21875 L104.673133,19.296875 C104.673133,20.3697917 104.920528,21.171875 105.41532,21.703125 C105.910112,22.234375 106.568966,22.5 107.391883,22.5 Z" id="Path"></path>
                    <path d="M116.485842,7.1875 L116.485842,24.3125 L113.892092,24.3125 L113.892092,7.1875 L116.485842,7.1875 Z M115.220217,0.78125 C115.647301,0.78125 116.014488,0.919270833 116.32178,1.1953125 C116.629071,1.47135417 116.782717,1.90104167 116.782717,2.484375 C116.782717,3.05729167 116.629071,3.484375 116.32178,3.765625 C116.014488,4.046875 115.647301,4.1875 115.220217,4.1875 C114.772301,4.1875 114.399905,4.046875 114.10303,3.765625 C113.806155,3.484375 113.657717,3.05729167 113.657717,2.484375 C113.657717,1.90104167 113.806155,1.47135417 114.10303,1.1953125 C114.399905,0.919270833 114.772301,0.78125 115.220217,0.78125 Z" id="Shape"></path>
                    <path d="M130.704802,6.875 C132.736052,6.875 134.27251,7.37239583 135.314177,8.3671875 C136.355843,9.36197917 136.876677,10.9583333 136.876677,13.15625 L136.876677,24.3125 L134.314177,24.3125 L134.314177,13.328125 C134.314177,11.9010417 133.988656,10.8333333 133.337614,10.125 C132.686573,9.41666667 131.689177,9.0625 130.345427,9.0625 C128.449593,9.0625 127.11626,9.59895833 126.345427,10.671875 C125.574593,11.7447917 125.189177,13.3020833 125.189177,15.34375 L125.189177,24.3125 L122.595427,24.3125 L122.595427,7.1875 L124.689177,7.1875 L125.079802,9.65625 L125.220427,9.65625 C125.58501,9.05208333 126.048552,8.54427083 126.611052,8.1328125 C127.173552,7.72135417 127.80376,7.40885417 128.501677,7.1953125 C129.199593,6.98177083 129.933968,6.875 130.704802,6.875 Z" id="Path"></path>
                    <path d="M147.626886,32 C145.376886,32 143.642511,31.5807292 142.423761,30.7421875 C141.205011,29.9036458 140.595636,28.7291667 140.595636,27.21875 C140.595636,26.1458333 140.936782,25.2291667 141.619074,24.46875 C142.301366,23.7083333 143.246678,23.203125 144.455011,22.953125 C144.007095,22.7447917 143.624282,22.4322917 143.306574,22.015625 C142.988866,21.5989583 142.830011,21.1197917 142.830011,20.578125 C142.830011,19.953125 143.004491,19.4036458 143.353449,18.9296875 C143.702407,18.4557292 144.236261,18 144.955011,17.5625 C144.059178,17.1979167 143.332616,16.5807292 142.775324,15.7109375 C142.218032,14.8411458 141.939386,13.828125 141.939386,12.671875 C141.939386,11.4427083 142.194595,10.3932292 142.705011,9.5234375 C143.215428,8.65364583 143.955011,7.98958333 144.923761,7.53125 C145.892511,7.07291667 147.064386,6.84375 148.439386,6.84375 C148.74147,6.84375 149.046157,6.85677083 149.353449,6.8828125 C149.660741,6.90885417 149.955011,6.9453125 150.236261,6.9921875 C150.517511,7.0390625 150.762303,7.09375 150.970636,7.15625 L156.845636,7.15625 L156.845636,8.828125 L153.689386,9.21875 C154.001886,9.625 154.262303,10.1145833 154.470636,10.6875 C154.67897,11.2604167 154.783136,11.8958333 154.783136,12.59375 C154.783136,14.3020833 154.205011,15.6588542 153.048761,16.6640625 C151.892511,17.6692708 150.30397,18.171875 148.283136,18.171875 C147.80397,18.171875 147.314386,18.1302083 146.814386,18.046875 C146.30397,18.328125 145.915949,18.640625 145.650324,18.984375 C145.384699,19.328125 145.251886,19.7239583 145.251886,20.171875 C145.251886,20.5052083 145.353449,20.7708333 145.556574,20.96875 C145.759699,21.1666667 146.05397,21.3098958 146.439386,21.3984375 C146.824803,21.4869792 147.288345,21.53125 147.830011,21.53125 L150.845636,21.53125 C152.71022,21.53125 154.139907,21.921875 155.134699,22.703125 C156.129491,23.484375 156.626886,24.625 156.626886,26.125 C156.626886,28.0208333 155.856053,29.4739583 154.314386,30.484375 C152.77272,31.4947917 150.543553,32 147.626886,32 Z M147.705011,29.96875 C149.121678,29.96875 150.296157,29.8255208 151.228449,29.5390625 C152.160741,29.2526042 152.858657,28.8411458 153.322199,28.3046875 C153.785741,27.7682292 154.017511,27.1302083 154.017511,26.390625 C154.017511,25.703125 153.861261,25.1848958 153.548761,24.8359375 C153.236261,24.4869792 152.777928,24.2526042 152.173761,24.1328125 C151.569595,24.0130208 150.830011,23.953125 149.955011,23.953125 L146.986261,23.953125 C146.215428,23.953125 145.543553,24.0729167 144.970636,24.3125 C144.39772,24.5520833 143.957616,24.90625 143.650324,25.375 C143.343032,25.84375 143.189386,26.4270833 143.189386,27.125 C143.189386,28.0520833 143.580011,28.7578125 144.361261,29.2421875 C145.142511,29.7265625 146.257095,29.96875 147.705011,29.96875 Z M148.376886,16.28125 C149.61647,16.28125 150.548761,15.96875 151.173761,15.34375 C151.798761,14.71875 152.111261,13.8072917 152.111261,12.609375 C152.111261,11.328125 151.793553,10.3671875 151.158136,9.7265625 C150.52272,9.0859375 149.58522,8.765625 148.345636,8.765625 C147.158136,8.765625 146.244074,9.09635417 145.603449,9.7578125 C144.962824,10.4192708 144.642511,11.3854167 144.642511,12.65625 C144.642511,13.8229167 144.965428,14.71875 145.611261,15.34375 C146.257095,15.96875 147.17897,16.28125 148.376886,16.28125 Z" id="Shape"></path>
                </g>
                <g id="support" transform="translate(633.609375, 167.906250)" fill="#FFFFFF" fill-rule="nonzero">
                    <path d="M12.203125,16.40625 C12.203125,17.5 11.9296875,18.4192708 11.3828125,19.1640625 C10.8359375,19.9088542 10.0546875,20.46875 9.0390625,20.84375 C8.0234375,21.21875 6.8125,21.40625 5.40625,21.40625 C4.20833333,21.40625 3.171875,21.3125 2.296875,21.125 C1.421875,20.9375 0.65625,20.671875 0,20.328125 L0,17.9375 C0.697916667,18.28125 1.53125,18.59375 2.5,18.875 C3.46875,19.15625 4.45833333,19.296875 5.46875,19.296875 C6.94791667,19.296875 8.02083333,19.0572917 8.6875,18.578125 C9.35416667,18.0989583 9.6875,17.4479167 9.6875,16.625 C9.6875,16.15625 9.5546875,15.7421875 9.2890625,15.3828125 C9.0234375,15.0234375 8.578125,14.6744792 7.953125,14.3359375 C7.328125,13.9973958 6.46354167,13.625 5.359375,13.21875 C4.265625,12.8020833 3.3203125,12.3880208 2.5234375,11.9765625 C1.7265625,11.5651042 1.11197917,11.0625 0.6796875,10.46875 C0.247395833,9.875 0.03125,9.10416667 0.03125,8.15625 C0.03125,6.70833333 0.6171875,5.59635417 1.7890625,4.8203125 C2.9609375,4.04427083 4.5,3.65625 6.40625,3.65625 C7.4375,3.65625 8.40364583,3.7578125 9.3046875,3.9609375 C10.2057292,4.1640625 11.046875,4.4375 11.828125,4.78125 L10.953125,6.859375 C10.2447917,6.55729167 9.48958333,6.30208333 8.6875,6.09375 C7.88541667,5.88541667 7.06770833,5.78125 6.234375,5.78125 C5.03645833,5.78125 4.1171875,5.97916667 3.4765625,6.375 C2.8359375,6.77083333 2.515625,7.3125 2.515625,8 C2.515625,8.53125 2.6640625,8.96875 2.9609375,9.3125 C3.2578125,9.65625 3.734375,9.97916667 4.390625,10.28125 C5.046875,10.5833333 5.91145833,10.9375 6.984375,11.34375 C8.05729167,11.7395833 8.984375,12.1484375 9.765625,12.5703125 C10.546875,12.9921875 11.1484375,13.5026042 11.5703125,14.1015625 C11.9921875,14.7005208 12.203125,15.46875 12.203125,16.40625 Z" id="Path"></path>
                    <path d="M31.1408346,3.96875 L31.1408346,21.09375 L29.0158346,21.09375 L28.6408346,18.6875 L28.5002096,18.6875 C28.1460429,19.28125 27.6877096,19.78125 27.1252096,20.1875 C26.5627096,20.59375 25.9298971,20.8984375 25.2267721,21.1015625 C24.5236471,21.3046875 23.7762513,21.40625 22.9845846,21.40625 C21.6304179,21.40625 20.4950013,21.1875 19.5783346,20.75 C18.6616679,20.3125 17.9715638,19.6354167 17.5080221,18.71875 C17.0444804,17.8020833 16.8127096,16.625 16.8127096,15.1875 L16.8127096,3.96875 L19.4377096,3.96875 L19.4377096,15 C19.4377096,16.4270833 19.7606263,17.4921875 20.4064596,18.1953125 C21.0522929,18.8984375 22.0366679,19.25 23.3595846,19.25 C24.6304179,19.25 25.6434388,19.0104167 26.3986471,18.53125 C27.1538554,18.0520833 27.6981263,17.3463542 28.0314596,16.4140625 C28.3647929,15.4817708 28.5314596,14.3385417 28.5314596,12.984375 L28.5314596,3.96875 L31.1408346,3.96875 Z" id="Path"></path>
                    <path d="M45.2972942,3.65625 C47.4327109,3.65625 49.1358359,4.390625 50.4066692,5.859375 C51.6775025,7.328125 52.3129192,9.53645833 52.3129192,12.484375 C52.3129192,14.4322917 52.0212525,16.0677083 51.4379192,17.390625 C50.8545859,18.7135417 50.0342734,19.7135417 48.9769817,20.390625 C47.91969,21.0677083 46.6722942,21.40625 45.2347942,21.40625 C44.3285442,21.40625 43.5316692,21.2864583 42.8441692,21.046875 C42.1566692,20.8072917 41.5681275,20.484375 41.0785442,20.078125 C40.5889609,19.671875 40.1827109,19.2291667 39.8597942,18.75 L39.6722942,18.75 C39.7035442,19.15625 39.7426067,19.6458333 39.7894817,20.21875 C39.8363567,20.7916667 39.8597942,21.2916667 39.8597942,21.71875 L39.8597942,28.75 L37.2504192,28.75 L37.2504192,3.96875 L39.3910442,3.96875 L39.7347942,6.5 L39.8597942,6.5 C40.1931275,5.97916667 40.5993775,5.50260417 41.0785442,5.0703125 C41.5577109,4.63802083 42.1436484,4.29427083 42.8363567,4.0390625 C43.529065,3.78385417 44.3493775,3.65625 45.2972942,3.65625 Z M44.8441692,5.84375 C43.6566692,5.84375 42.70094,6.07291667 41.9769817,6.53125 C41.2530234,6.98958333 40.7243775,7.67447917 40.3910442,8.5859375 C40.0577109,9.49739583 39.8806275,10.640625 39.8597942,12.015625 L39.8597942,12.515625 C39.8597942,13.9635417 40.0186484,15.1875 40.3363567,16.1875 C40.654065,17.1875 41.1801067,17.9479167 41.9144817,18.46875 C42.6488567,18.9895833 43.6358359,19.25 44.8754192,19.25 C45.9379192,19.25 46.8233359,18.9635417 47.5316692,18.390625 C48.2400025,17.8177083 48.7686484,17.0182292 49.1176067,15.9921875 C49.466565,14.9661458 49.6410442,13.7864583 49.6410442,12.453125 C49.6410442,10.4322917 49.247815,8.82552083 48.4613567,7.6328125 C47.6748984,6.44010417 46.4691692,5.84375 44.8441692,5.84375 Z" id="Shape"></path>
                    <path d="M65.5006288,3.65625 C67.6360455,3.65625 69.3391705,4.390625 70.6100038,5.859375 C71.8808371,7.328125 72.5162538,9.53645833 72.5162538,12.484375 C72.5162538,14.4322917 72.2245871,16.0677083 71.6412538,17.390625 C71.0579205,18.7135417 70.237608,19.7135417 69.1803163,20.390625 C68.1230246,21.0677083 66.8756288,21.40625 65.4381288,21.40625 C64.5318788,21.40625 63.7350038,21.2864583 63.0475038,21.046875 C62.3600038,20.8072917 61.7714621,20.484375 61.2818788,20.078125 C60.7922955,19.671875 60.3860455,19.2291667 60.0631288,18.75 L59.8756288,18.75 C59.9068788,19.15625 59.9459413,19.6458333 59.9928163,20.21875 C60.0396913,20.7916667 60.0631288,21.2916667 60.0631288,21.71875 L60.0631288,28.75 L57.4537538,28.75 L57.4537538,3.96875 L59.5943788,3.96875 L59.9381288,6.5 L60.0631288,6.5 C60.3964621,5.97916667 60.8027121,5.50260417 61.2818788,5.0703125 C61.7610455,4.63802083 62.346983,4.29427083 63.0396913,4.0390625 C63.7323996,3.78385417 64.5527121,3.65625 65.5006288,3.65625 Z M65.0475038,5.84375 C63.8600038,5.84375 62.9042746,6.07291667 62.1803163,6.53125 C61.456358,6.98958333 60.9277121,7.67447917 60.5943788,8.5859375 C60.2610455,9.49739583 60.0839621,10.640625 60.0631288,12.015625 L60.0631288,12.515625 C60.0631288,13.9635417 60.221983,15.1875 60.5396913,16.1875 C60.8573996,17.1875 61.3834413,17.9479167 62.1178163,18.46875 C62.8521913,18.9895833 63.8391705,19.25 65.0787538,19.25 C66.1412538,19.25 67.0266705,18.9635417 67.7350038,18.390625 C68.4433371,17.8177083 68.971983,17.0182292 69.3209413,15.9921875 C69.6698996,14.9661458 69.8443788,13.7864583 69.8443788,12.453125 C69.8443788,10.4322917 69.4511496,8.82552083 68.6646913,7.6328125 C67.878233,6.44010417 66.6725038,5.84375 65.0475038,5.84375 Z" id="Shape"></path>
                    <path d="M92.4227134,12.5 C92.4227134,13.90625 92.2404217,15.1614583 91.8758384,16.265625 C91.5112551,17.3697917 90.9852134,18.3020833 90.2977134,19.0625 C89.6102134,19.8229167 88.7794842,20.4036458 87.8055259,20.8046875 C86.8315676,21.2057292 85.7300051,21.40625 84.5008384,21.40625 C83.3550051,21.40625 82.3055259,21.2057292 81.3524009,20.8046875 C80.3992759,20.4036458 79.5763592,19.8229167 78.8836509,19.0625 C78.1909426,18.3020833 77.6544842,17.3697917 77.2742759,16.265625 C76.8940676,15.1614583 76.7039634,13.90625 76.7039634,12.5 C76.7039634,10.625 77.0216717,9.02864583 77.6570884,7.7109375 C78.2925051,6.39322917 79.2013592,5.38802083 80.3836509,4.6953125 C81.5659426,4.00260417 82.9747967,3.65625 84.6102134,3.65625 C86.1727134,3.65625 87.5399009,4.00520833 88.7117759,4.703125 C89.8836509,5.40104167 90.7951092,6.40885417 91.4461509,7.7265625 C92.0971926,9.04427083 92.4227134,10.6354167 92.4227134,12.5 Z M79.3914634,12.5 C79.3914634,13.875 79.5737551,15.0677083 79.9383384,16.078125 C80.3029217,17.0885417 80.8654217,17.8697917 81.6258384,18.421875 C82.3862551,18.9739583 83.3654217,19.25 84.5633384,19.25 C85.7508384,19.25 86.7274009,18.9739583 87.4930259,18.421875 C88.2586509,17.8697917 88.8237551,17.0885417 89.1883384,16.078125 C89.5529217,15.0677083 89.7352134,13.875 89.7352134,12.5 C89.7352134,11.1354167 89.5529217,9.95572917 89.1883384,8.9609375 C88.8237551,7.96614583 88.2612551,7.19791667 87.5008384,6.65625 C86.7404217,6.11458333 85.7560467,5.84375 84.5477134,5.84375 C82.7664634,5.84375 81.4617759,6.43229167 80.6336509,7.609375 C79.8055259,8.78645833 79.3914634,10.4166667 79.3914634,12.5 Z" id="Shape"></path>
                    <path d="M105.313548,3.65625 C105.657298,3.65625 106.016673,3.67447917 106.391673,3.7109375 C106.766673,3.74739583 107.100006,3.796875 107.391673,3.859375 L107.063548,6.265625 C106.782298,6.19270833 106.469798,6.13541667 106.126048,6.09375 C105.782298,6.05208333 105.459381,6.03125 105.157298,6.03125 C104.469798,6.03125 103.82136,6.16927083 103.211985,6.4453125 C102.60261,6.72135417 102.068756,7.1171875 101.610423,7.6328125 C101.15209,8.1484375 100.792715,8.76822917 100.532298,9.4921875 C100.271881,10.2161458 100.141673,11.0208333 100.141673,11.90625 L100.141673,21.09375 L97.532298,21.09375 L97.532298,3.96875 L99.688548,3.96875 L99.969798,7.125 L100.079173,7.125 C100.43334,6.48958333 100.860423,5.90885417 101.360423,5.3828125 C101.860423,4.85677083 102.441152,4.4375 103.10261,4.125 C103.764069,3.8125 104.501048,3.65625 105.313548,3.65625 Z" id="Path"></path>
                    <path d="M116.766883,19.28125 C117.193966,19.28125 117.631466,19.2447917 118.079383,19.171875 C118.527299,19.0989583 118.891883,19.0104167 119.173133,18.90625 L119.173133,20.921875 C118.871049,21.0572917 118.451778,21.171875 117.91532,21.265625 C117.378862,21.359375 116.855424,21.40625 116.345008,21.40625 C115.438758,21.40625 114.615841,21.2473958 113.876258,20.9296875 C113.136674,20.6119792 112.545528,20.0729167 112.10282,19.3125 C111.660112,18.5520833 111.438758,17.5 111.438758,16.15625 L111.438758,6 L109.001258,6 L109.001258,4.734375 L111.454383,3.71875 L112.485633,0 L114.048133,0 L114.048133,3.96875 L119.063758,3.96875 L119.063758,6 L114.048133,6 L114.048133,16.078125 C114.048133,17.1510417 114.295528,17.953125 114.79032,18.484375 C115.285112,19.015625 115.943966,19.28125 116.766883,19.28125 Z" id="Path"></path>
                </g>
                <g id="development" transform="translate(527.781250, 331.687500)" fill="#FFFFFF" fill-rule="nonzero">
                    <path d="M7.046875,24.625 C4.88020833,24.625 3.1640625,23.8854167 1.8984375,22.40625 C0.6328125,20.9270833 0,18.7291667 0,15.8125 C0,12.8645833 0.645833333,10.6380208 1.9375,9.1328125 C3.22916667,7.62760417 4.94791667,6.875 7.09375,6.875 C8,6.875 8.79166667,6.99479167 9.46875,7.234375 C10.1458333,7.47395833 10.7291667,7.79427083 11.21875,8.1953125 C11.7083333,8.59635417 12.1197917,9.05208333 12.453125,9.5625 L12.640625,9.5625 C12.5989583,9.23958333 12.5572917,8.796875 12.515625,8.234375 C12.4739583,7.671875 12.453125,7.21354167 12.453125,6.859375 L12.453125,0 L15.046875,0 L15.046875,24.3125 L12.953125,24.3125 L12.5625,21.875 L12.453125,21.875 C12.1302083,22.3854167 11.7213542,22.8489583 11.2265625,23.265625 C10.7317708,23.6822917 10.1432292,24.0130208 9.4609375,24.2578125 C8.77864583,24.5026042 7.97395833,24.625 7.046875,24.625 Z M7.453125,22.46875 C9.28645833,22.46875 10.5833333,21.9479167 11.34375,20.90625 C12.1041667,19.8645833 12.484375,18.3177083 12.484375,16.265625 L12.484375,15.796875 C12.484375,13.6197917 12.1223958,11.9479167 11.3984375,10.78125 C10.6744792,9.61458333 9.359375,9.03125 7.453125,9.03125 C5.859375,9.03125 4.66666667,9.64322917 3.875,10.8671875 C3.08333333,12.0911458 2.6875,13.7604167 2.6875,15.875 C2.6875,17.9791667 3.08072917,19.6041667 3.8671875,20.75 C4.65364583,21.8958333 5.84895833,22.46875 7.453125,22.46875 Z" id="Shape"></path>
                    <path d="M27.7502096,6.875 C29.2085429,6.875 30.4585429,7.19791667 31.5002096,7.84375 C32.5418763,8.48958333 33.3387513,9.39322917 33.8908346,10.5546875 C34.4429179,11.7161458 34.7189596,13.0729167 34.7189596,14.625 L34.7189596,16.234375 L22.8908346,16.234375 C22.9220846,18.2447917 23.4220846,19.7760417 24.3908346,20.828125 C25.3595846,21.8802083 26.7241679,22.40625 28.4845846,22.40625 C29.5679179,22.40625 30.5262513,22.3072917 31.3595846,22.109375 C32.1929179,21.9114583 33.0575013,21.6197917 33.9533346,21.234375 L33.9533346,23.515625 C33.0887513,23.9010417 32.2319804,24.1822917 31.3830221,24.359375 C30.5340638,24.5364583 29.5314596,24.625 28.3752096,24.625 C26.7293763,24.625 25.2944804,24.2890625 24.0705221,23.6171875 C22.8465638,22.9453125 21.8960429,21.9583333 21.2189596,20.65625 C20.5418763,19.3541667 20.2033346,17.7604167 20.2033346,15.875 C20.2033346,14.03125 20.5132304,12.4348958 21.1330221,11.0859375 C21.7528138,9.73697917 22.6278138,8.69791667 23.7580221,7.96875 C24.8882304,7.23958333 26.2189596,6.875 27.7502096,6.875 Z M27.7189596,9 C26.3335429,9 25.2293763,9.453125 24.4064596,10.359375 C23.5835429,11.265625 23.0939596,12.53125 22.9377096,14.15625 L32.0002096,14.15625 C31.9897929,13.1354167 31.8309388,12.2369792 31.5236471,11.4609375 C31.2163554,10.6848958 30.7502096,10.0807292 30.1252096,9.6484375 C29.5002096,9.21614583 28.6981263,9 27.7189596,9 Z" id="Shape"></path>
                    <path d="M43.5160442,24.3125 L37.0160442,7.1875 L39.7972942,7.1875 L43.5629192,17.546875 C43.8233359,18.2552083 44.0889609,19.0364583 44.3597942,19.890625 C44.6306275,20.7447917 44.8181275,21.4322917 44.9222942,21.953125 L45.0316692,21.953125 C45.1566692,21.4322917 45.3650025,20.7421875 45.6566692,19.8828125 C45.9483359,19.0234375 46.2139609,18.2447917 46.4535442,17.546875 L50.2191692,7.1875 L53.0004192,7.1875 L46.4847942,24.3125 L43.5160442,24.3125 Z" id="Path"></path>
                    <path d="M62.9537538,6.875 C64.4120871,6.875 65.6620871,7.19791667 66.7037538,7.84375 C67.7454205,8.48958333 68.5422955,9.39322917 69.0943788,10.5546875 C69.6464621,11.7161458 69.9225038,13.0729167 69.9225038,14.625 L69.9225038,16.234375 L58.0943788,16.234375 C58.1256288,18.2447917 58.6256288,19.7760417 59.5943788,20.828125 C60.5631288,21.8802083 61.9277121,22.40625 63.6881288,22.40625 C64.7714621,22.40625 65.7297955,22.3072917 66.5631288,22.109375 C67.3964621,21.9114583 68.2610455,21.6197917 69.1568788,21.234375 L69.1568788,23.515625 C68.2922955,23.9010417 67.4355246,24.1822917 66.5865663,24.359375 C65.737608,24.5364583 64.7350038,24.625 63.5787538,24.625 C61.9329205,24.625 60.4980246,24.2890625 59.2740663,23.6171875 C58.050108,22.9453125 57.0995871,21.9583333 56.4225038,20.65625 C55.7454205,19.3541667 55.4068788,17.7604167 55.4068788,15.875 C55.4068788,14.03125 55.7167746,12.4348958 56.3365663,11.0859375 C56.956358,9.73697917 57.831358,8.69791667 58.9615663,7.96875 C60.0917746,7.23958333 61.4225038,6.875 62.9537538,6.875 Z M62.9225038,9 C61.5370871,9 60.4329205,9.453125 59.6100038,10.359375 C58.7870871,11.265625 58.2975038,12.53125 58.1412538,14.15625 L67.2037538,14.15625 C67.1933371,13.1354167 67.034483,12.2369792 66.7271913,11.4609375 C66.4198996,10.6848958 65.9537538,10.0807292 65.3287538,9.6484375 C64.7037538,9.21614583 63.9016705,9 62.9225038,9 Z" id="Shape"></path>
                    <polygon id="Path" points="77.5633384 24.3125 74.9539634 24.3125 74.9539634 0 77.5633384 0"></polygon>
                    <path d="M98.422923,15.71875 C98.422923,17.125 98.2406313,18.3802083 97.876048,19.484375 C97.5114647,20.5885417 96.985423,21.5208333 96.297923,22.28125 C95.610423,23.0416667 94.7796938,23.6223958 93.8057355,24.0234375 C92.8317772,24.4244792 91.7302147,24.625 90.501048,24.625 C89.3552147,24.625 88.3057355,24.4244792 87.3526105,24.0234375 C86.3994855,23.6223958 85.5765688,23.0416667 84.8838605,22.28125 C84.1911522,21.5208333 83.6546938,20.5885417 83.2744855,19.484375 C82.8942772,18.3802083 82.704173,17.125 82.704173,15.71875 C82.704173,13.84375 83.0218813,12.2473958 83.657298,10.9296875 C84.2927147,9.61197917 85.2015688,8.60677083 86.3838605,7.9140625 C87.5661522,7.22135417 88.9750063,6.875 90.610423,6.875 C92.172923,6.875 93.5401105,7.22395833 94.7119855,7.921875 C95.8838605,8.61979167 96.7953188,9.62760417 97.4463605,10.9453125 C98.0974022,12.2630208 98.422923,13.8541667 98.422923,15.71875 Z M85.391673,15.71875 C85.391673,17.09375 85.5739647,18.2864583 85.938548,19.296875 C86.3031313,20.3072917 86.8656313,21.0885417 87.626048,21.640625 C88.3864647,22.1927083 89.3656313,22.46875 90.563548,22.46875 C91.751048,22.46875 92.7276105,22.1927083 93.4932355,21.640625 C94.2588605,21.0885417 94.8239647,20.3072917 95.188548,19.296875 C95.5531313,18.2864583 95.735423,17.09375 95.735423,15.71875 C95.735423,14.3541667 95.5531313,13.1744792 95.188548,12.1796875 C94.8239647,11.1848958 94.2614647,10.4166667 93.501048,9.875 C92.7406313,9.33333333 91.7562563,9.0625 90.547923,9.0625 C88.766673,9.0625 87.4619855,9.65104167 86.6338605,10.828125 C85.8057355,12.0052083 85.391673,13.6354167 85.391673,15.71875 Z" id="Shape"></path>
                    <path d="M111.579383,6.875 C113.714799,6.875 115.417924,7.609375 116.688758,9.078125 C117.959591,10.546875 118.595008,12.7552083 118.595008,15.703125 C118.595008,17.6510417 118.303341,19.2864583 117.720008,20.609375 C117.136674,21.9322917 116.316362,22.9322917 115.25907,23.609375 C114.201778,24.2864583 112.954383,24.625 111.516883,24.625 C110.610633,24.625 109.813758,24.5052083 109.126258,24.265625 C108.438758,24.0260417 107.850216,23.703125 107.360633,23.296875 C106.871049,22.890625 106.464799,22.4479167 106.141883,21.96875 L105.954383,21.96875 C105.985633,22.375 106.024695,22.8645833 106.07157,23.4375 C106.118445,24.0104167 106.141883,24.5104167 106.141883,24.9375 L106.141883,31.96875 L103.532508,31.96875 L103.532508,7.1875 L105.673133,7.1875 L106.016883,9.71875 L106.141883,9.71875 C106.475216,9.19791667 106.881466,8.72135417 107.360633,8.2890625 C107.839799,7.85677083 108.425737,7.51302083 109.118445,7.2578125 C109.811153,7.00260417 110.631466,6.875 111.579383,6.875 Z M111.126258,9.0625 C109.938758,9.0625 108.983028,9.29166667 108.25907,9.75 C107.535112,10.2083333 107.006466,10.8932292 106.673133,11.8046875 C106.339799,12.7161458 106.162716,13.859375 106.141883,15.234375 L106.141883,15.734375 C106.141883,17.1822917 106.300737,18.40625 106.618445,19.40625 C106.936153,20.40625 107.462195,21.1666667 108.19657,21.6875 C108.930945,22.2083333 109.917924,22.46875 111.157508,22.46875 C112.220008,22.46875 113.105424,22.1822917 113.813758,21.609375 C114.522091,21.0364583 115.050737,20.2369792 115.399695,19.2109375 C115.748653,18.1848958 115.923133,17.0052083 115.923133,15.671875 C115.923133,13.6510417 115.529903,12.0442708 114.743445,10.8515625 C113.956987,9.65885417 112.751258,9.0625 111.126258,9.0625 Z" id="Shape"></path>
                    <path d="M142.329592,6.875 C144.215009,6.875 145.636884,7.3671875 146.595217,8.3515625 C147.553551,9.3359375 148.032717,10.9166667 148.032717,13.09375 L148.032717,24.3125 L145.470217,24.3125 L145.470217,13.21875 C145.470217,11.8333333 145.170738,10.7942708 144.57178,10.1015625 C143.972821,9.40885417 143.084801,9.0625 141.907717,9.0625 C140.251467,9.0625 139.048342,9.54166667 138.298342,10.5 C137.548342,11.4583333 137.173342,12.8697917 137.173342,14.734375 L137.173342,24.3125 L134.595217,24.3125 L134.595217,13.21875 C134.595217,12.2916667 134.462405,11.5208333 134.19678,10.90625 C133.931155,10.2916667 133.535321,9.83072917 133.00928,9.5234375 C132.483238,9.21614583 131.819176,9.0625 131.017092,9.0625 C129.881676,9.0625 128.970217,9.296875 128.282717,9.765625 C127.595217,10.234375 127.097821,10.9296875 126.79053,11.8515625 C126.483238,12.7734375 126.329592,13.90625 126.329592,15.25 L126.329592,24.3125 L123.735842,24.3125 L123.735842,7.1875 L125.829592,7.1875 L126.220217,9.609375 L126.360842,9.609375 C126.704592,9.015625 127.136884,8.515625 127.657717,8.109375 C128.178551,7.703125 128.761884,7.39583333 129.407717,7.1875 C130.053551,6.97916667 130.741051,6.875 131.470217,6.875 C132.772301,6.875 133.863446,7.1171875 134.743655,7.6015625 C135.623863,8.0859375 136.261884,8.82291667 136.657717,9.8125 L136.798342,9.8125 C137.360842,8.82291667 138.131676,8.0859375 139.110842,7.6015625 C140.090009,7.1171875 141.162926,6.875 142.329592,6.875 Z" id="Path"></path>
                    <path d="M160.579802,6.875 C162.038135,6.875 163.288135,7.19791667 164.329802,7.84375 C165.371468,8.48958333 166.168343,9.39322917 166.720427,10.5546875 C167.27251,11.7161458 167.548552,13.0729167 167.548552,14.625 L167.548552,16.234375 L155.720427,16.234375 C155.751677,18.2447917 156.251677,19.7760417 157.220427,20.828125 C158.189177,21.8802083 159.55376,22.40625 161.314177,22.40625 C162.39751,22.40625 163.355843,22.3072917 164.189177,22.109375 C165.02251,21.9114583 165.887093,21.6197917 166.782927,21.234375 L166.782927,23.515625 C165.918343,23.9010417 165.061573,24.1822917 164.212614,24.359375 C163.363656,24.5364583 162.361052,24.625 161.204802,24.625 C159.558968,24.625 158.124073,24.2890625 156.900114,23.6171875 C155.676156,22.9453125 154.725635,21.9583333 154.048552,20.65625 C153.371468,19.3541667 153.032927,17.7604167 153.032927,15.875 C153.032927,14.03125 153.342823,12.4348958 153.962614,11.0859375 C154.582406,9.73697917 155.457406,8.69791667 156.587614,7.96875 C157.717823,7.23958333 159.048552,6.875 160.579802,6.875 Z M160.548552,9 C159.163135,9 158.058968,9.453125 157.236052,10.359375 C156.413135,11.265625 155.923552,12.53125 155.767302,14.15625 L164.829802,14.15625 C164.819385,13.1354167 164.660531,12.2369792 164.353239,11.4609375 C164.045948,10.6848958 163.579802,10.0807292 162.954802,9.6484375 C162.329802,9.21614583 161.527718,9 160.548552,9 Z" id="Shape"></path>
                    <path d="M180.689386,6.875 C182.720636,6.875 184.257095,7.37239583 185.298761,8.3671875 C186.340428,9.36197917 186.861261,10.9583333 186.861261,13.15625 L186.861261,24.3125 L184.298761,24.3125 L184.298761,13.328125 C184.298761,11.9010417 183.973241,10.8333333 183.322199,10.125 C182.671157,9.41666667 181.673761,9.0625 180.330011,9.0625 C178.434178,9.0625 177.100845,9.59895833 176.330011,10.671875 C175.559178,11.7447917 175.173761,13.3020833 175.173761,15.34375 L175.173761,24.3125 L172.580011,24.3125 L172.580011,7.1875 L174.673761,7.1875 L175.064386,9.65625 L175.205011,9.65625 C175.569595,9.05208333 176.033136,8.54427083 176.595636,8.1328125 C177.158136,7.72135417 177.788345,7.40885417 178.486261,7.1953125 C179.184178,6.98177083 179.918553,6.875 180.689386,6.875 Z" id="Path"></path>
                    <path d="M198.361471,22.5 C198.788554,22.5 199.226054,22.4635417 199.673971,22.390625 C200.121888,22.3177083 200.486471,22.2291667 200.767721,22.125 L200.767721,24.140625 C200.465638,24.2760417 200.046367,24.390625 199.509909,24.484375 C198.97345,24.578125 198.450013,24.625 197.939596,24.625 C197.033346,24.625 196.210429,24.4661458 195.470846,24.1484375 C194.731263,23.8307292 194.140117,23.2916667 193.697409,22.53125 C193.2547,21.7708333 193.033346,20.71875 193.033346,19.375 L193.033346,9.21875 L190.595846,9.21875 L190.595846,7.953125 L193.048971,6.9375 L194.080221,3.21875 L195.642721,3.21875 L195.642721,7.1875 L200.658346,7.1875 L200.658346,9.21875 L195.642721,9.21875 L195.642721,19.296875 C195.642721,20.3697917 195.890117,21.171875 196.384909,21.703125 C196.8797,22.234375 197.538554,22.5 198.361471,22.5 Z" id="Path"></path>
                </g>
                <g id="maintenance" transform="translate(202.234375, 361.468750)" fill="#FFFFFF" fill-rule="nonzero">
                    <path d="M18.59375,6.09375 C20.4791667,6.09375 21.9010417,6.5859375 22.859375,7.5703125 C23.8177083,8.5546875 24.296875,10.1354167 24.296875,12.3125 L24.296875,23.53125 L21.734375,23.53125 L21.734375,12.4375 C21.734375,11.0520833 21.4348958,10.0130208 20.8359375,9.3203125 C20.2369792,8.62760417 19.3489583,8.28125 18.171875,8.28125 C16.515625,8.28125 15.3125,8.76041667 14.5625,9.71875 C13.8125,10.6770833 13.4375,12.0885417 13.4375,13.953125 L13.4375,23.53125 L10.859375,23.53125 L10.859375,12.4375 C10.859375,11.5104167 10.7265625,10.7395833 10.4609375,10.125 C10.1953125,9.51041667 9.79947917,9.04947917 9.2734375,8.7421875 C8.74739583,8.43489583 8.08333333,8.28125 7.28125,8.28125 C6.14583333,8.28125 5.234375,8.515625 4.546875,8.984375 C3.859375,9.453125 3.36197917,10.1484375 3.0546875,11.0703125 C2.74739583,11.9921875 2.59375,13.125 2.59375,14.46875 L2.59375,23.53125 L0,23.53125 L0,6.40625 L2.09375,6.40625 L2.484375,8.828125 L2.625,8.828125 C2.96875,8.234375 3.40104167,7.734375 3.921875,7.328125 C4.44270833,6.921875 5.02604167,6.61458333 5.671875,6.40625 C6.31770833,6.19791667 7.00520833,6.09375 7.734375,6.09375 C9.03645833,6.09375 10.1276042,6.3359375 11.0078125,6.8203125 C11.8880208,7.3046875 12.5260417,8.04166667 12.921875,9.03125 L13.0625,9.03125 C13.625,8.04166667 14.3958333,7.3046875 15.375,6.8203125 C16.3541667,6.3359375 17.4270833,6.09375 18.59375,6.09375 Z" id="Path"></path>
                    <path d="M36.6564596,6.125 C38.6981263,6.125 40.2137513,6.58333333 41.2033346,7.5 C42.1929179,8.41666667 42.6877096,9.88020833 42.6877096,11.890625 L42.6877096,23.53125 L40.7970846,23.53125 L40.2970846,21 L40.1720846,21 C39.6929179,21.625 39.1929179,22.1484375 38.6720846,22.5703125 C38.1512513,22.9921875 37.5496888,23.3098958 36.8673971,23.5234375 C36.1851054,23.7369792 35.3491679,23.84375 34.3595846,23.84375 C33.3179179,23.84375 32.3934388,23.6614583 31.5861471,23.296875 C30.7788554,22.9322917 30.1434388,22.3802083 29.6798971,21.640625 C29.2163554,20.9010417 28.9845846,19.9635417 28.9845846,18.828125 C28.9845846,17.1197917 29.6616679,15.8072917 31.0158346,14.890625 C32.3700013,13.9739583 34.4325013,13.4739583 37.2033346,13.390625 L40.1564596,13.265625 L40.1564596,12.21875 C40.1564596,10.7395833 39.8387513,9.703125 39.2033346,9.109375 C38.5679179,8.515625 37.6720846,8.21875 36.5158346,8.21875 C35.6200013,8.21875 34.7658346,8.34895833 33.9533346,8.609375 C33.1408346,8.86979167 32.3700013,9.17708333 31.6408346,9.53125 L30.8439596,7.5625 C31.6147929,7.16666667 32.5002096,6.828125 33.5002096,6.546875 C34.5002096,6.265625 35.5522929,6.125 36.6564596,6.125 Z M40.1252096,15.09375 L37.5158346,15.203125 C35.3804179,15.2864583 33.8752096,15.6354167 33.0002096,16.25 C32.1252096,16.8645833 31.6877096,17.734375 31.6877096,18.859375 C31.6877096,19.8385417 31.9845846,20.5625 32.5783346,21.03125 C33.1720846,21.5 33.9585429,21.734375 34.9377096,21.734375 C36.4585429,21.734375 37.7033346,21.3125 38.6720846,20.46875 C39.6408346,19.625 40.1252096,18.359375 40.1252096,16.671875 L40.1252096,15.09375 Z" id="Shape"></path>
                    <path d="M51.2504192,6.40625 L51.2504192,23.53125 L48.6566692,23.53125 L48.6566692,6.40625 L51.2504192,6.40625 Z M49.9847942,0 C50.4118775,0 50.779065,0.138020833 51.0863567,0.4140625 C51.3936484,0.690104167 51.5472942,1.11979167 51.5472942,1.703125 C51.5472942,2.27604167 51.3936484,2.703125 51.0863567,2.984375 C50.779065,3.265625 50.4118775,3.40625 49.9847942,3.40625 C49.5368775,3.40625 49.1644817,3.265625 48.8676067,2.984375 C48.5707317,2.703125 48.4222942,2.27604167 48.4222942,1.703125 C48.4222942,1.11979167 48.5707317,0.690104167 48.8676067,0.4140625 C49.1644817,0.138020833 49.5368775,0 49.9847942,0 Z" id="Shape"></path>
                    <path d="M65.4693788,6.09375 C67.5006288,6.09375 69.0370871,6.59114583 70.0787538,7.5859375 C71.1204205,8.58072917 71.6412538,10.1770833 71.6412538,12.375 L71.6412538,23.53125 L69.0787538,23.53125 L69.0787538,12.546875 C69.0787538,11.1197917 68.753233,10.0520833 68.1021913,9.34375 C67.4511496,8.63541667 66.4537538,8.28125 65.1100038,8.28125 C63.2141705,8.28125 61.8808371,8.81770833 61.1100038,9.890625 C60.3391705,10.9635417 59.9537538,12.5208333 59.9537538,14.5625 L59.9537538,23.53125 L57.3600038,23.53125 L57.3600038,6.40625 L59.4537538,6.40625 L59.8443788,8.875 L59.9850038,8.875 C60.3495871,8.27083333 60.8131288,7.76302083 61.3756288,7.3515625 C61.9381288,6.94010417 62.5683371,6.62760417 63.2662538,6.4140625 C63.9641705,6.20052083 64.6985455,6.09375 65.4693788,6.09375 Z" id="Path"></path>
                    <path d="M83.1414634,21.71875 C83.5685467,21.71875 84.0060467,21.6822917 84.4539634,21.609375 C84.9018801,21.5364583 85.2664634,21.4479167 85.5477134,21.34375 L85.5477134,23.359375 C85.2456301,23.4947917 84.8263592,23.609375 84.2899009,23.703125 C83.7534426,23.796875 83.2300051,23.84375 82.7195884,23.84375 C81.8133384,23.84375 80.9904217,23.6848958 80.2508384,23.3671875 C79.5112551,23.0494792 78.9201092,22.5104167 78.4774009,21.75 C78.0346926,20.9895833 77.8133384,19.9375 77.8133384,18.59375 L77.8133384,8.4375 L75.3758384,8.4375 L75.3758384,7.171875 L77.8289634,6.15625 L78.8602134,2.4375 L80.4227134,2.4375 L80.4227134,6.40625 L85.4383384,6.40625 L85.4383384,8.4375 L80.4227134,8.4375 L80.4227134,18.515625 C80.4227134,19.5885417 80.6701092,20.390625 81.1649009,20.921875 C81.6596926,21.453125 82.3185467,21.71875 83.1414634,21.71875 Z" id="Path"></path>
                    <path d="M96.235423,6.09375 C97.6937563,6.09375 98.9437563,6.41666667 99.985423,7.0625 C101.02709,7.70833333 101.823965,8.61197917 102.376048,9.7734375 C102.928131,10.9348958 103.204173,12.2916667 103.204173,13.84375 L103.204173,15.453125 L91.376048,15.453125 C91.407298,17.4635417 91.907298,18.9947917 92.876048,20.046875 C93.844798,21.0989583 95.2093813,21.625 96.969798,21.625 C98.0531313,21.625 99.0114647,21.5260417 99.844798,21.328125 C100.678131,21.1302083 101.542715,20.8385417 102.438548,20.453125 L102.438548,22.734375 C101.573965,23.1197917 100.717194,23.4010417 99.8682355,23.578125 C99.0192772,23.7552083 98.016673,23.84375 96.860423,23.84375 C95.2145897,23.84375 93.7796938,23.5078125 92.5557355,22.8359375 C91.3317772,22.1640625 90.3812563,21.1770833 89.704173,19.875 C89.0270897,18.5729167 88.688548,16.9791667 88.688548,15.09375 C88.688548,13.25 88.9984438,11.6536458 89.6182355,10.3046875 C90.2380272,8.95572917 91.1130272,7.91666667 92.2432355,7.1875 C93.3734438,6.45833333 94.704173,6.09375 96.235423,6.09375 Z M96.204173,8.21875 C94.8187563,8.21875 93.7145897,8.671875 92.891673,9.578125 C92.0687563,10.484375 91.579173,11.75 91.422923,13.375 L100.485423,13.375 C100.475006,12.3541667 100.316152,11.4557292 100.00886,10.6796875 C99.7015688,9.90364583 99.235423,9.29947917 98.610423,8.8671875 C97.985423,8.43489583 97.1833397,8.21875 96.204173,8.21875 Z" id="Shape"></path>
                    <path d="M116.345008,6.09375 C118.376258,6.09375 119.912716,6.59114583 120.954383,7.5859375 C121.996049,8.58072917 122.516883,10.1770833 122.516883,12.375 L122.516883,23.53125 L119.954383,23.53125 L119.954383,12.546875 C119.954383,11.1197917 119.628862,10.0520833 118.97782,9.34375 C118.326778,8.63541667 117.329383,8.28125 115.985633,8.28125 C114.089799,8.28125 112.756466,8.81770833 111.985633,9.890625 C111.214799,10.9635417 110.829383,12.5208333 110.829383,14.5625 L110.829383,23.53125 L108.235633,23.53125 L108.235633,6.40625 L110.329383,6.40625 L110.720008,8.875 L110.860633,8.875 C111.225216,8.27083333 111.688758,7.76302083 112.251258,7.3515625 C112.813758,6.94010417 113.443966,6.62760417 114.141883,6.4140625 C114.839799,6.20052083 115.574174,6.09375 116.345008,6.09375 Z" id="Path"></path>
                    <path d="M134.892092,6.125 C136.933759,6.125 138.449384,6.58333333 139.438967,7.5 C140.428551,8.41666667 140.923342,9.88020833 140.923342,11.890625 L140.923342,23.53125 L139.032717,23.53125 L138.532717,21 L138.407717,21 C137.928551,21.625 137.428551,22.1484375 136.907717,22.5703125 C136.386884,22.9921875 135.785321,23.3098958 135.10303,23.5234375 C134.420738,23.7369792 133.584801,23.84375 132.595217,23.84375 C131.553551,23.84375 130.629071,23.6614583 129.82178,23.296875 C129.014488,22.9322917 128.379071,22.3802083 127.91553,21.640625 C127.451988,20.9010417 127.220217,19.9635417 127.220217,18.828125 C127.220217,17.1197917 127.897301,15.8072917 129.251467,14.890625 C130.605634,13.9739583 132.668134,13.4739583 135.438967,13.390625 L138.392092,13.265625 L138.392092,12.21875 C138.392092,10.7395833 138.074384,9.703125 137.438967,9.109375 C136.803551,8.515625 135.907717,8.21875 134.751467,8.21875 C133.855634,8.21875 133.001467,8.34895833 132.188967,8.609375 C131.376467,8.86979167 130.605634,9.17708333 129.876467,9.53125 L129.079592,7.5625 C129.850426,7.16666667 130.735842,6.828125 131.735842,6.546875 C132.735842,6.265625 133.787926,6.125 134.892092,6.125 Z M138.360842,15.09375 L135.751467,15.203125 C133.616051,15.2864583 132.110842,15.6354167 131.235842,16.25 C130.360842,16.8645833 129.923342,17.734375 129.923342,18.859375 C129.923342,19.8385417 130.220217,20.5625 130.813967,21.03125 C131.407717,21.5 132.194176,21.734375 133.173342,21.734375 C134.694176,21.734375 135.938967,21.3125 136.907717,20.46875 C137.876467,19.625 138.360842,18.359375 138.360842,16.671875 L138.360842,15.09375 Z" id="Shape"></path>
                    <path d="M155.001677,6.09375 C157.032927,6.09375 158.569385,6.59114583 159.611052,7.5859375 C160.652718,8.58072917 161.173552,10.1770833 161.173552,12.375 L161.173552,23.53125 L158.611052,23.53125 L158.611052,12.546875 C158.611052,11.1197917 158.285531,10.0520833 157.634489,9.34375 C156.983448,8.63541667 155.986052,8.28125 154.642302,8.28125 C152.746468,8.28125 151.413135,8.81770833 150.642302,9.890625 C149.871468,10.9635417 149.486052,12.5208333 149.486052,14.5625 L149.486052,23.53125 L146.892302,23.53125 L146.892302,6.40625 L148.986052,6.40625 L149.376677,8.875 L149.517302,8.875 C149.881885,8.27083333 150.345427,7.76302083 150.907927,7.3515625 C151.470427,6.94010417 152.100635,6.62760417 152.798552,6.4140625 C153.496468,6.20052083 154.230843,6.09375 155.001677,6.09375 Z" id="Path"></path>
                    <path d="M174.001886,23.84375 C172.46022,23.84375 171.100845,23.5260417 169.923761,22.890625 C168.746678,22.2552083 167.830011,21.2864583 167.173761,19.984375 C166.517511,18.6822917 166.189386,17.0416667 166.189386,15.0625 C166.189386,12.9895833 166.535741,11.2942708 167.228449,9.9765625 C167.921157,8.65885417 168.876886,7.68229167 170.095636,7.046875 C171.314386,6.41145833 172.699803,6.09375 174.251886,6.09375 C175.106053,6.09375 175.931574,6.1796875 176.728449,6.3515625 C177.525324,6.5234375 178.17897,6.73958333 178.689386,7 L177.908136,9.171875 C177.387303,8.96354167 176.785741,8.77604167 176.103449,8.609375 C175.421157,8.44270833 174.783136,8.359375 174.189386,8.359375 C173.001886,8.359375 172.014907,8.61458333 171.228449,9.125 C170.441991,9.63541667 169.853449,10.3854167 169.462824,11.375 C169.072199,12.3645833 168.876886,13.5833333 168.876886,15.03125 C168.876886,16.4166667 169.066991,17.5989583 169.447199,18.578125 C169.827407,19.5572917 170.395116,20.3046875 171.150324,20.8203125 C171.905532,21.3359375 172.850845,21.59375 173.986261,21.59375 C174.892511,21.59375 175.71022,21.4973958 176.439386,21.3046875 C177.168553,21.1119792 177.830011,20.8854167 178.423761,20.625 L178.423761,22.9375 C177.850845,23.2291667 177.212824,23.453125 176.509699,23.609375 C175.806574,23.765625 174.970636,23.84375 174.001886,23.84375 Z" id="Path"></path>
                    <path d="M189.689596,6.09375 C191.147929,6.09375 192.397929,6.41666667 193.439596,7.0625 C194.481263,7.70833333 195.278138,8.61197917 195.830221,9.7734375 C196.382304,10.9348958 196.658346,12.2916667 196.658346,13.84375 L196.658346,15.453125 L184.830221,15.453125 C184.861471,17.4635417 185.361471,18.9947917 186.330221,20.046875 C187.298971,21.0989583 188.663554,21.625 190.423971,21.625 C191.507304,21.625 192.465638,21.5260417 193.298971,21.328125 C194.132304,21.1302083 194.996888,20.8385417 195.892721,20.453125 L195.892721,22.734375 C195.028138,23.1197917 194.171367,23.4010417 193.322409,23.578125 C192.47345,23.7552083 191.470846,23.84375 190.314596,23.84375 C188.668763,23.84375 187.233867,23.5078125 186.009909,22.8359375 C184.78595,22.1640625 183.835429,21.1770833 183.158346,19.875 C182.481263,18.5729167 182.142721,16.9791667 182.142721,15.09375 C182.142721,13.25 182.452617,11.6536458 183.072409,10.3046875 C183.6922,8.95572917 184.5672,7.91666667 185.697409,7.1875 C186.827617,6.45833333 188.158346,6.09375 189.689596,6.09375 Z M189.658346,8.21875 C188.272929,8.21875 187.168763,8.671875 186.345846,9.578125 C185.522929,10.484375 185.033346,11.75 184.877096,13.375 L193.939596,13.375 C193.929179,12.3541667 193.770325,11.4557292 193.463034,10.6796875 C193.155742,9.90364583 192.689596,9.29947917 192.064596,8.8671875 C191.439596,8.43489583 190.637513,8.21875 189.658346,8.21875 Z" id="Shape"></path>
                </g>
                <g id="planning" transform="translate(48.734375, 264.687500)" fill="#FFFFFF" fill-rule="nonzero">
                    <path d="M8.046875,6.875 C10.1822917,6.875 11.8854167,7.609375 13.15625,9.078125 C14.4270833,10.546875 15.0625,12.7552083 15.0625,15.703125 C15.0625,17.6510417 14.7708333,19.2864583 14.1875,20.609375 C13.6041667,21.9322917 12.7838542,22.9322917 11.7265625,23.609375 C10.6692708,24.2864583 9.421875,24.625 7.984375,24.625 C7.078125,24.625 6.28125,24.5052083 5.59375,24.265625 C4.90625,24.0260417 4.31770833,23.703125 3.828125,23.296875 C3.33854167,22.890625 2.93229167,22.4479167 2.609375,21.96875 L2.421875,21.96875 C2.453125,22.375 2.4921875,22.8645833 2.5390625,23.4375 C2.5859375,24.0104167 2.609375,24.5104167 2.609375,24.9375 L2.609375,31.96875 L0,31.96875 L0,7.1875 L2.140625,7.1875 L2.484375,9.71875 L2.609375,9.71875 C2.94270833,9.19791667 3.34895833,8.72135417 3.828125,8.2890625 C4.30729167,7.85677083 4.89322917,7.51302083 5.5859375,7.2578125 C6.27864583,7.00260417 7.09895833,6.875 8.046875,6.875 Z M7.59375,9.0625 C6.40625,9.0625 5.45052083,9.29166667 4.7265625,9.75 C4.00260417,10.2083333 3.47395833,10.8932292 3.140625,11.8046875 C2.80729167,12.7161458 2.63020833,13.859375 2.609375,15.234375 L2.609375,15.734375 C2.609375,17.1822917 2.76822917,18.40625 3.0859375,19.40625 C3.40364583,20.40625 3.9296875,21.1666667 4.6640625,21.6875 C5.3984375,22.2083333 6.38541667,22.46875 7.625,22.46875 C8.6875,22.46875 9.57291667,22.1822917 10.28125,21.609375 C10.9895833,21.0364583 11.5182292,20.2369792 11.8671875,19.2109375 C12.2161458,18.1848958 12.390625,17.0052083 12.390625,15.671875 C12.390625,13.6510417 11.9973958,12.0442708 11.2109375,10.8515625 C10.4244792,9.65885417 9.21875,9.0625 7.59375,9.0625 Z" id="Shape"></path>
                    <polygon id="Path" points="22.8127096 24.3125 20.2033346 24.3125 20.2033346 0 22.8127096 0"></polygon>
                    <path d="M35.3129192,6.90625 C37.3545859,6.90625 38.8702109,7.36458333 39.8597942,8.28125 C40.8493775,9.19791667 41.3441692,10.6614583 41.3441692,12.671875 L41.3441692,24.3125 L39.4535442,24.3125 L38.9535442,21.78125 L38.8285442,21.78125 C38.3493775,22.40625 37.8493775,22.9296875 37.3285442,23.3515625 C36.8077109,23.7734375 36.2061484,24.0911458 35.5238567,24.3046875 C34.841565,24.5182292 34.0056275,24.625 33.0160442,24.625 C31.9743775,24.625 31.0498984,24.4427083 30.2426067,24.078125 C29.435315,23.7135417 28.7998984,23.1614583 28.3363567,22.421875 C27.872815,21.6822917 27.6410442,20.7447917 27.6410442,19.609375 C27.6410442,17.9010417 28.3181275,16.5885417 29.6722942,15.671875 C31.0264609,14.7552083 33.0889609,14.2552083 35.8597942,14.171875 L38.8129192,14.046875 L38.8129192,13 C38.8129192,11.5208333 38.4952109,10.484375 37.8597942,9.890625 C37.2243775,9.296875 36.3285442,9 35.1722942,9 C34.2764609,9 33.4222942,9.13020833 32.6097942,9.390625 C31.7972942,9.65104167 31.0264609,9.95833333 30.2972942,10.3125 L29.5004192,8.34375 C30.2712525,7.94791667 31.1566692,7.609375 32.1566692,7.328125 C33.1566692,7.046875 34.2087525,6.90625 35.3129192,6.90625 Z M38.7816692,15.875 L36.1722942,15.984375 C34.0368775,16.0677083 32.5316692,16.4166667 31.6566692,17.03125 C30.7816692,17.6458333 30.3441692,18.515625 30.3441692,19.640625 C30.3441692,20.6197917 30.6410442,21.34375 31.2347942,21.8125 C31.8285442,22.28125 32.6150025,22.515625 33.5941692,22.515625 C35.1150025,22.515625 36.3597942,22.09375 37.3285442,21.25 C38.2972942,20.40625 38.7816692,19.140625 38.7816692,17.453125 L38.7816692,15.875 Z" id="Shape"></path>
                    <path d="M55.4225038,6.875 C57.4537538,6.875 58.9902121,7.37239583 60.0318788,8.3671875 C61.0735455,9.36197917 61.5943788,10.9583333 61.5943788,13.15625 L61.5943788,24.3125 L59.0318788,24.3125 L59.0318788,13.328125 C59.0318788,11.9010417 58.706358,10.8333333 58.0553163,10.125 C57.4042746,9.41666667 56.4068788,9.0625 55.0631288,9.0625 C53.1672955,9.0625 51.8339621,9.59895833 51.0631288,10.671875 C50.2922955,11.7447917 49.9068788,13.3020833 49.9068788,15.34375 L49.9068788,24.3125 L47.3131288,24.3125 L47.3131288,7.1875 L49.4068788,7.1875 L49.7975038,9.65625 L49.9381288,9.65625 C50.3027121,9.05208333 50.7662538,8.54427083 51.3287538,8.1328125 C51.8912538,7.72135417 52.5214621,7.40885417 53.2193788,7.1953125 C53.9172955,6.98177083 54.6516705,6.875 55.4225038,6.875 Z" id="Path"></path>
                    <path d="M75.6727134,6.875 C77.7039634,6.875 79.2404217,7.37239583 80.2820884,8.3671875 C81.3237551,9.36197917 81.8445884,10.9583333 81.8445884,13.15625 L81.8445884,24.3125 L79.2820884,24.3125 L79.2820884,13.328125 C79.2820884,11.9010417 78.9565676,10.8333333 78.3055259,10.125 C77.6544842,9.41666667 76.6570884,9.0625 75.3133384,9.0625 C73.4175051,9.0625 72.0841717,9.59895833 71.3133384,10.671875 C70.5425051,11.7447917 70.1570884,13.3020833 70.1570884,15.34375 L70.1570884,24.3125 L67.5633384,24.3125 L67.5633384,7.1875 L69.6570884,7.1875 L70.0477134,9.65625 L70.1883384,9.65625 C70.5529217,9.05208333 71.0164634,8.54427083 71.5789634,8.1328125 C72.1414634,7.72135417 72.7716717,7.40885417 73.4695884,7.1953125 C74.1675051,6.98177083 74.9018801,6.875 75.6727134,6.875 Z" id="Path"></path>
                    <path d="M90.407298,7.1875 L90.407298,24.3125 L87.813548,24.3125 L87.813548,7.1875 L90.407298,7.1875 Z M89.141673,0.78125 C89.5687563,0.78125 89.9359438,0.919270833 90.2432355,1.1953125 C90.5505272,1.47135417 90.704173,1.90104167 90.704173,2.484375 C90.704173,3.05729167 90.5505272,3.484375 90.2432355,3.765625 C89.9359438,4.046875 89.5687563,4.1875 89.141673,4.1875 C88.6937563,4.1875 88.3213605,4.046875 88.0244855,3.765625 C87.7276105,3.484375 87.579173,3.05729167 87.579173,2.484375 C87.579173,1.90104167 87.7276105,1.47135417 88.0244855,1.1953125 C88.3213605,0.919270833 88.6937563,0.78125 89.141673,0.78125 Z" id="Shape"></path>
                    <path d="M104.626258,6.875 C106.657508,6.875 108.193966,7.37239583 109.235633,8.3671875 C110.277299,9.36197917 110.798133,10.9583333 110.798133,13.15625 L110.798133,24.3125 L108.235633,24.3125 L108.235633,13.328125 C108.235633,11.9010417 107.910112,10.8333333 107.25907,10.125 C106.608028,9.41666667 105.610633,9.0625 104.266883,9.0625 C102.371049,9.0625 101.037716,9.59895833 100.266883,10.671875 C99.4960493,11.7447917 99.1106326,13.3020833 99.1106326,15.34375 L99.1106326,24.3125 L96.5168826,24.3125 L96.5168826,7.1875 L98.6106326,7.1875 L99.0012576,9.65625 L99.1418826,9.65625 C99.5064659,9.05208333 99.9700076,8.54427083 100.532508,8.1328125 C101.095008,7.72135417 101.725216,7.40885417 102.423133,7.1953125 C103.121049,6.98177083 103.855424,6.875 104.626258,6.875 Z" id="Path"></path>
                    <path d="M121.548342,32 C119.298342,32 117.563967,31.5807292 116.345217,30.7421875 C115.126467,29.9036458 114.517092,28.7291667 114.517092,27.21875 C114.517092,26.1458333 114.858238,25.2291667 115.54053,24.46875 C116.222821,23.7083333 117.168134,23.203125 118.376467,22.953125 C117.928551,22.7447917 117.545738,22.4322917 117.22803,22.015625 C116.910321,21.5989583 116.751467,21.1197917 116.751467,20.578125 C116.751467,19.953125 116.925946,19.4036458 117.274905,18.9296875 C117.623863,18.4557292 118.157717,18 118.876467,17.5625 C117.980634,17.1979167 117.254071,16.5807292 116.69678,15.7109375 C116.139488,14.8411458 115.860842,13.828125 115.860842,12.671875 C115.860842,11.4427083 116.116051,10.3932292 116.626467,9.5234375 C117.136884,8.65364583 117.876467,7.98958333 118.845217,7.53125 C119.813967,7.07291667 120.985842,6.84375 122.360842,6.84375 C122.662926,6.84375 122.967613,6.85677083 123.274905,6.8828125 C123.582196,6.90885417 123.876467,6.9453125 124.157717,6.9921875 C124.438967,7.0390625 124.683759,7.09375 124.892092,7.15625 L130.767092,7.15625 L130.767092,8.828125 L127.610842,9.21875 C127.923342,9.625 128.183759,10.1145833 128.392092,10.6875 C128.600426,11.2604167 128.704592,11.8958333 128.704592,12.59375 C128.704592,14.3020833 128.126467,15.6588542 126.970217,16.6640625 C125.813967,17.6692708 124.225426,18.171875 122.204592,18.171875 C121.725426,18.171875 121.235842,18.1302083 120.735842,18.046875 C120.225426,18.328125 119.837405,18.640625 119.57178,18.984375 C119.306155,19.328125 119.173342,19.7239583 119.173342,20.171875 C119.173342,20.5052083 119.274905,20.7708333 119.47803,20.96875 C119.681155,21.1666667 119.975426,21.3098958 120.360842,21.3984375 C120.746259,21.4869792 121.209801,21.53125 121.751467,21.53125 L124.767092,21.53125 C126.631676,21.53125 128.061363,21.921875 129.056155,22.703125 C130.050946,23.484375 130.548342,24.625 130.548342,26.125 C130.548342,28.0208333 129.777509,29.4739583 128.235842,30.484375 C126.694176,31.4947917 124.465009,32 121.548342,32 Z M121.626467,29.96875 C123.043134,29.96875 124.217613,29.8255208 125.149905,29.5390625 C126.082196,29.2526042 126.780113,28.8411458 127.243655,28.3046875 C127.707196,27.7682292 127.938967,27.1302083 127.938967,26.390625 C127.938967,25.703125 127.782717,25.1848958 127.470217,24.8359375 C127.157717,24.4869792 126.699384,24.2526042 126.095217,24.1328125 C125.491051,24.0130208 124.751467,23.953125 123.876467,23.953125 L120.907717,23.953125 C120.136884,23.953125 119.465009,24.0729167 118.892092,24.3125 C118.319176,24.5520833 117.879071,24.90625 117.57178,25.375 C117.264488,25.84375 117.110842,26.4270833 117.110842,27.125 C117.110842,28.0520833 117.501467,28.7578125 118.282717,29.2421875 C119.063967,29.7265625 120.178551,29.96875 121.626467,29.96875 Z M122.298342,16.28125 C123.537926,16.28125 124.470217,15.96875 125.095217,15.34375 C125.720217,14.71875 126.032717,13.8072917 126.032717,12.609375 C126.032717,11.328125 125.715009,10.3671875 125.079592,9.7265625 C124.444176,9.0859375 123.506676,8.765625 122.267092,8.765625 C121.079592,8.765625 120.16553,9.09635417 119.524905,9.7578125 C118.88428,10.4192708 118.563967,11.3854167 118.563967,12.65625 C118.563967,13.8229167 118.886884,14.71875 119.532717,15.34375 C120.178551,15.96875 121.100426,16.28125 122.298342,16.28125 Z" id="Shape"></path>
                </g>
                <g id="apps" transform="translate(124.468750, 130.062500)" fill="#FFFFFF" fill-rule="nonzero">
                    <path d="M7.671875,0.03125 C9.71354167,0.03125 11.2291667,0.489583333 12.21875,1.40625 C13.2083333,2.32291667 13.703125,3.78645833 13.703125,5.796875 L13.703125,17.4375 L11.8125,17.4375 L11.3125,14.90625 L11.1875,14.90625 C10.7083333,15.53125 10.2083333,16.0546875 9.6875,16.4765625 C9.16666667,16.8984375 8.56510417,17.2161458 7.8828125,17.4296875 C7.20052083,17.6432292 6.36458333,17.75 5.375,17.75 C4.33333333,17.75 3.40885417,17.5677083 2.6015625,17.203125 C1.79427083,16.8385417 1.15885417,16.2864583 0.6953125,15.546875 C0.231770833,14.8072917 1.42108547e-14,13.8697917 1.42108547e-14,12.734375 C1.42108547e-14,11.0260417 0.677083333,9.71354167 2.03125,8.796875 C3.38541667,7.88020833 5.44791667,7.38020833 8.21875,7.296875 L11.171875,7.171875 L11.171875,6.125 C11.171875,4.64583333 10.8541667,3.609375 10.21875,3.015625 C9.58333333,2.421875 8.6875,2.125 7.53125,2.125 C6.63541667,2.125 5.78125,2.25520833 4.96875,2.515625 C4.15625,2.77604167 3.38541667,3.08333333 2.65625,3.4375 L1.859375,1.46875 C2.63020833,1.07291667 3.515625,0.734375 4.515625,0.453125 C5.515625,0.171875 6.56770833,0.03125 7.671875,0.03125 Z M11.140625,9 L8.53125,9.109375 C6.39583333,9.19270833 4.890625,9.54166667 4.015625,10.15625 C3.140625,10.7708333 2.703125,11.640625 2.703125,12.765625 C2.703125,13.7447917 3,14.46875 3.59375,14.9375 C4.1875,15.40625 4.97395833,15.640625 5.953125,15.640625 C7.47395833,15.640625 8.71875,15.21875 9.6875,14.375 C10.65625,13.53125 11.140625,12.265625 11.140625,10.578125 L11.140625,9 Z" id="Shape"></path>
                    <path d="M27.7189596,0 C29.8543763,0 31.5575013,0.734375 32.8283346,2.203125 C34.0991679,3.671875 34.7345846,5.88020833 34.7345846,8.828125 C34.7345846,10.7760417 34.4429179,12.4114583 33.8595846,13.734375 C33.2762513,15.0572917 32.4559388,16.0572917 31.3986471,16.734375 C30.3413554,17.4114583 29.0939596,17.75 27.6564596,17.75 C26.7502096,17.75 25.9533346,17.6302083 25.2658346,17.390625 C24.5783346,17.1510417 23.9897929,16.828125 23.5002096,16.421875 C23.0106263,16.015625 22.6043763,15.5729167 22.2814596,15.09375 L22.0939596,15.09375 C22.1252096,15.5 22.1642721,15.9895833 22.2111471,16.5625 C22.2580221,17.1354167 22.2814596,17.6354167 22.2814596,18.0625 L22.2814596,25.09375 L19.6720846,25.09375 L19.6720846,0.3125 L21.8127096,0.3125 L22.1564596,2.84375 L22.2814596,2.84375 C22.6147929,2.32291667 23.0210429,1.84635417 23.5002096,1.4140625 C23.9793763,0.981770833 24.5653138,0.638020833 25.2580221,0.3828125 C25.9507304,0.127604167 26.7710429,0 27.7189596,0 Z M27.2658346,2.1875 C26.0783346,2.1875 25.1226054,2.41666667 24.3986471,2.875 C23.6746888,3.33333333 23.1460429,4.01822917 22.8127096,4.9296875 C22.4793763,5.84114583 22.3022929,6.984375 22.2814596,8.359375 L22.2814596,8.859375 C22.2814596,10.3072917 22.4403138,11.53125 22.7580221,12.53125 C23.0757304,13.53125 23.6017721,14.2916667 24.3361471,14.8125 C25.0705221,15.3333333 26.0575013,15.59375 27.2970846,15.59375 C28.3595846,15.59375 29.2450013,15.3072917 29.9533346,14.734375 C30.6616679,14.1614583 31.1903138,13.3619792 31.5392721,12.3359375 C31.8882304,11.3098958 32.0627096,10.1302083 32.0627096,8.796875 C32.0627096,6.77604167 31.6694804,5.16927083 30.8830221,3.9765625 C30.0965638,2.78385417 28.8908346,2.1875 27.2658346,2.1875 Z" id="Shape"></path>
                    <path d="M47.9222942,0 C50.0577109,0 51.7608359,0.734375 53.0316692,2.203125 C54.3025025,3.671875 54.9379192,5.88020833 54.9379192,8.828125 C54.9379192,10.7760417 54.6462525,12.4114583 54.0629192,13.734375 C53.4795859,15.0572917 52.6592734,16.0572917 51.6019817,16.734375 C50.54469,17.4114583 49.2972942,17.75 47.8597942,17.75 C46.9535442,17.75 46.1566692,17.6302083 45.4691692,17.390625 C44.7816692,17.1510417 44.1931275,16.828125 43.7035442,16.421875 C43.2139609,16.015625 42.8077109,15.5729167 42.4847942,15.09375 L42.2972942,15.09375 C42.3285442,15.5 42.3676067,15.9895833 42.4144817,16.5625 C42.4613567,17.1354167 42.4847942,17.6354167 42.4847942,18.0625 L42.4847942,25.09375 L39.8754192,25.09375 L39.8754192,0.3125 L42.0160442,0.3125 L42.3597942,2.84375 L42.4847942,2.84375 C42.8181275,2.32291667 43.2243775,1.84635417 43.7035442,1.4140625 C44.1827109,0.981770833 44.7686484,0.638020833 45.4613567,0.3828125 C46.154065,0.127604167 46.9743775,0 47.9222942,0 Z M47.4691692,2.1875 C46.2816692,2.1875 45.32594,2.41666667 44.6019817,2.875 C43.8780234,3.33333333 43.3493775,4.01822917 43.0160442,4.9296875 C42.6827109,5.84114583 42.5056275,6.984375 42.4847942,8.359375 L42.4847942,8.859375 C42.4847942,10.3072917 42.6436484,11.53125 42.9613567,12.53125 C43.279065,13.53125 43.8051067,14.2916667 44.5394817,14.8125 C45.2738567,15.3333333 46.2608359,15.59375 47.5004192,15.59375 C48.5629192,15.59375 49.4483359,15.3072917 50.1566692,14.734375 C50.8650025,14.1614583 51.3936484,13.3619792 51.7426067,12.3359375 C52.091565,11.3098958 52.2660442,10.1302083 52.2660442,8.796875 C52.2660442,6.77604167 51.872815,5.16927083 51.0863567,3.9765625 C50.2998984,2.78385417 49.0941692,2.1875 47.4691692,2.1875 Z" id="Shape"></path>
                    <path d="M71.1568788,12.75 C71.1568788,13.84375 70.8834413,14.7630208 70.3365663,15.5078125 C69.7896913,16.2526042 69.0084413,16.8125 67.9928163,17.1875 C66.9771913,17.5625 65.7662538,17.75 64.3600038,17.75 C63.1620871,17.75 62.1256288,17.65625 61.2506288,17.46875 C60.3756288,17.28125 59.6100038,17.015625 58.9537538,16.671875 L58.9537538,14.28125 C59.6516705,14.625 60.4850038,14.9375 61.4537538,15.21875 C62.4225038,15.5 63.4120871,15.640625 64.4225038,15.640625 C65.9016705,15.640625 66.9745871,15.4010417 67.6412538,14.921875 C68.3079205,14.4427083 68.6412538,13.7916667 68.6412538,12.96875 C68.6412538,12.5 68.5084413,12.0859375 68.2428163,11.7265625 C67.9771913,11.3671875 67.5318788,11.0182292 66.9068788,10.6796875 C66.2818788,10.3411458 65.4172955,9.96875 64.3131288,9.5625 C63.2193788,9.14583333 62.2740663,8.73177083 61.4771913,8.3203125 C60.6803163,7.90885417 60.065733,7.40625 59.6334413,6.8125 C59.2011496,6.21875 58.9850038,5.44791667 58.9850038,4.5 C58.9850038,3.05208333 59.5709413,1.94010417 60.7428163,1.1640625 C61.9146913,0.388020833 63.4537538,0 65.3600038,0 C66.3912538,0 67.3573996,0.1015625 68.2584413,0.3046875 C69.159483,0.5078125 70.0006288,0.78125 70.7818788,1.125 L69.9068788,3.203125 C69.1985455,2.90104167 68.4433371,2.64583333 67.6412538,2.4375 C66.8391705,2.22916667 66.0214621,2.125 65.1881288,2.125 C63.9902121,2.125 63.0709413,2.32291667 62.4303163,2.71875 C61.7896913,3.11458333 61.4693788,3.65625 61.4693788,4.34375 C61.4693788,4.875 61.6178163,5.3125 61.9146913,5.65625 C62.2115663,6 62.6881288,6.32291667 63.3443788,6.625 C64.0006288,6.92708333 64.8652121,7.28125 65.9381288,7.6875 C67.0110455,8.08333333 67.9381288,8.4921875 68.7193788,8.9140625 C69.5006288,9.3359375 70.1021913,9.84635417 70.5240663,10.4453125 C70.9459413,11.0442708 71.1568788,11.8125 71.1568788,12.75 Z" id="Path"></path>
                </g>
                <g id="websites" transform="translate(224.375000, 67.687500)" fill="#FFFFFF" fill-rule="nonzero">
                    <path d="M16.296875,24.28125 L13.25,14.3125 C13.1145833,13.8854167 12.9869792,13.4661458 12.8671875,13.0546875 C12.7473958,12.6432292 12.6380208,12.2473958 12.5390625,11.8671875 C12.4401042,11.4869792 12.3515625,11.1328125 12.2734375,10.8046875 C12.1953125,10.4765625 12.1302083,10.1927083 12.078125,9.953125 L11.96875,9.953125 C11.9270833,10.1927083 11.8697917,10.4765625 11.796875,10.8046875 C11.7239583,11.1328125 11.6380208,11.4895833 11.5390625,11.875 C11.4401042,12.2604167 11.3333333,12.6640625 11.21875,13.0859375 C11.1041667,13.5078125 10.9739583,13.9322917 10.828125,14.359375 L7.640625,24.28125 L4.71875,24.28125 L0,7.15625 L2.6875,7.15625 L5.15625,16.609375 C5.32291667,17.234375 5.48177083,17.8515625 5.6328125,18.4609375 C5.78385417,19.0703125 5.9140625,19.6432292 6.0234375,20.1796875 C6.1328125,20.7161458 6.21354167,21.1822917 6.265625,21.578125 L6.390625,21.578125 C6.453125,21.3177083 6.5234375,21.0052083 6.6015625,20.640625 C6.6796875,20.2760417 6.76822917,19.8880208 6.8671875,19.4765625 C6.96614583,19.0651042 7.07291667,18.6536458 7.1875,18.2421875 C7.30208333,17.8307292 7.41666667,17.4427083 7.53125,17.078125 L10.6875,7.15625 L13.484375,7.15625 L16.53125,17.0625 C16.6875,17.5625 16.8411458,18.0833333 16.9921875,18.625 C17.1432292,19.1666667 17.28125,19.6901042 17.40625,20.1953125 C17.53125,20.7005208 17.6197917,21.1510417 17.671875,21.546875 L17.796875,21.546875 C17.8385417,21.1927083 17.9166667,20.7552083 18.03125,20.234375 C18.1458333,19.7135417 18.2786458,19.140625 18.4296875,18.515625 C18.5807292,17.890625 18.7395833,17.2552083 18.90625,16.609375 L21.40625,7.15625 L24.046875,7.15625 L19.3125,24.28125 L16.296875,24.28125 Z" id="Path"></path>
                    <path d="M34.3752096,6.875 C35.8335429,6.875 37.0835429,7.19791667 38.1252096,7.84375 C39.1668763,8.48958333 39.9637513,9.39322917 40.5158346,10.5546875 C41.0679179,11.7161458 41.3439596,13.0729167 41.3439596,14.625 L41.3439596,16.234375 L29.5158346,16.234375 C29.5470846,18.2447917 30.0470846,19.7760417 31.0158346,20.828125 C31.9845846,21.8802083 33.3491679,22.40625 35.1095846,22.40625 C36.1929179,22.40625 37.1512513,22.3072917 37.9845846,22.109375 C38.8179179,21.9114583 39.6825013,21.6197917 40.5783346,21.234375 L40.5783346,23.515625 C39.7137513,23.9010417 38.8569804,24.1822917 38.0080221,24.359375 C37.1590638,24.5364583 36.1564596,24.625 35.0002096,24.625 C33.3543763,24.625 31.9194804,24.2890625 30.6955221,23.6171875 C29.4715638,22.9453125 28.5210429,21.9583333 27.8439596,20.65625 C27.1668763,19.3541667 26.8283346,17.7604167 26.8283346,15.875 C26.8283346,14.03125 27.1382304,12.4348958 27.7580221,11.0859375 C28.3778138,9.73697917 29.2528138,8.69791667 30.3830221,7.96875 C31.5132304,7.23958333 32.8439596,6.875 34.3752096,6.875 Z M34.3439596,9 C32.9585429,9 31.8543763,9.453125 31.0314596,10.359375 C30.2085429,11.265625 29.7189596,12.53125 29.5627096,14.15625 L38.6252096,14.15625 C38.6147929,13.1354167 38.4559388,12.2369792 38.1486471,11.4609375 C37.8413554,10.6848958 37.3752096,10.0807292 36.7502096,9.6484375 C36.1252096,9.21614583 35.3231263,9 34.3439596,9 Z" id="Shape"></path>
                    <path d="M48.9691692,0 L48.9691692,6.078125 C48.9691692,6.77604167 48.95094,7.453125 48.9144817,8.109375 C48.8780234,8.765625 48.8493775,9.27604167 48.8285442,9.640625 L48.9691692,9.640625 C49.4379192,8.86979167 50.1150025,8.21875 51.0004192,7.6875 C51.8858359,7.15625 53.0160442,6.890625 54.3910442,6.890625 C56.5368775,6.890625 58.247815,7.6328125 59.5238567,9.1171875 C60.7998984,10.6015625 61.4379192,12.8072917 61.4379192,15.734375 C61.4379192,17.6614583 61.1462525,19.2864583 60.5629192,20.609375 C59.9795859,21.9322917 59.1566692,22.9322917 58.0941692,23.609375 C57.0316692,24.2864583 55.7764609,24.625 54.3285442,24.625 C52.9743775,24.625 51.8623984,24.3723958 50.9926067,23.8671875 C50.122815,23.3619792 49.4535442,22.7447917 48.9847942,22.015625 L48.7816692,22.015625 L48.2504192,24.3125 L46.3754192,24.3125 L46.3754192,0 L48.9691692,0 Z M53.9691692,9.0625 C52.7295859,9.0625 51.7452109,9.3046875 51.0160442,9.7890625 C50.2868775,10.2734375 49.76344,11.0026042 49.4457317,11.9765625 C49.1280234,12.9505208 48.9691692,14.1822917 48.9691692,15.671875 L48.9691692,15.8125 C48.9691692,17.96875 49.3285442,19.6171875 50.0472942,20.7578125 C50.7660442,21.8984375 52.0733359,22.46875 53.9691692,22.46875 C55.5629192,22.46875 56.7582317,21.8854167 57.5551067,20.71875 C58.3519817,19.5520833 58.7504192,17.8854167 58.7504192,15.71875 C58.7504192,13.5104167 58.35719,11.8489583 57.5707317,10.734375 C56.7842734,9.61979167 55.5837525,9.0625 53.9691692,9.0625 Z" id="Shape"></path>
                    <path d="M77.6568788,19.625 C77.6568788,20.71875 77.3834413,21.6380208 76.8365663,22.3828125 C76.2896913,23.1276042 75.5084413,23.6875 74.4928163,24.0625 C73.4771913,24.4375 72.2662538,24.625 70.8600038,24.625 C69.6620871,24.625 68.6256288,24.53125 67.7506288,24.34375 C66.8756288,24.15625 66.1100038,23.890625 65.4537538,23.546875 L65.4537538,21.15625 C66.1516705,21.5 66.9850038,21.8125 67.9537538,22.09375 C68.9225038,22.375 69.9120871,22.515625 70.9225038,22.515625 C72.4016705,22.515625 73.4745871,22.2760417 74.1412538,21.796875 C74.8079205,21.3177083 75.1412538,20.6666667 75.1412538,19.84375 C75.1412538,19.375 75.0084413,18.9609375 74.7428163,18.6015625 C74.4771913,18.2421875 74.0318788,17.8932292 73.4068788,17.5546875 C72.7818788,17.2161458 71.9172955,16.84375 70.8131288,16.4375 C69.7193788,16.0208333 68.7740663,15.6067708 67.9771913,15.1953125 C67.1803163,14.7838542 66.565733,14.28125 66.1334413,13.6875 C65.7011496,13.09375 65.4850038,12.3229167 65.4850038,11.375 C65.4850038,9.92708333 66.0709413,8.81510417 67.2428163,8.0390625 C68.4146913,7.26302083 69.9537538,6.875 71.8600038,6.875 C72.8912538,6.875 73.8573996,6.9765625 74.7584413,7.1796875 C75.659483,7.3828125 76.5006288,7.65625 77.2818788,8 L76.4068788,10.078125 C75.6985455,9.77604167 74.9433371,9.52083333 74.1412538,9.3125 C73.3391705,9.10416667 72.5214621,9 71.6881288,9 C70.4902121,9 69.5709413,9.19791667 68.9303163,9.59375 C68.2896913,9.98958333 67.9693788,10.53125 67.9693788,11.21875 C67.9693788,11.75 68.1178163,12.1875 68.4146913,12.53125 C68.7115663,12.875 69.1881288,13.1979167 69.8443788,13.5 C70.5006288,13.8020833 71.3652121,14.15625 72.4381288,14.5625 C73.5110455,14.9583333 74.4381288,15.3671875 75.2193788,15.7890625 C76.0006288,16.2109375 76.6021913,16.7213542 77.0240663,17.3203125 C77.4459413,17.9192708 77.6568788,18.6875 77.6568788,19.625 Z" id="Path"></path>
                    <path d="M85.0477134,7.1875 L85.0477134,24.3125 L82.4539634,24.3125 L82.4539634,7.1875 L85.0477134,7.1875 Z M83.7820884,0.78125 C84.2091717,0.78125 84.5763592,0.919270833 84.8836509,1.1953125 C85.1909426,1.47135417 85.3445884,1.90104167 85.3445884,2.484375 C85.3445884,3.05729167 85.1909426,3.484375 84.8836509,3.765625 C84.5763592,4.046875 84.2091717,4.1875 83.7820884,4.1875 C83.3341717,4.1875 82.9617759,4.046875 82.6649009,3.765625 C82.3680259,3.484375 82.2195884,3.05729167 82.2195884,2.484375 C82.2195884,1.90104167 82.3680259,1.47135417 82.6649009,1.1953125 C82.9617759,0.919270833 83.3341717,0.78125 83.7820884,0.78125 Z" id="Shape"></path>
                    <path d="M96.688548,22.5 C97.1156313,22.5 97.5531313,22.4635417 98.001048,22.390625 C98.4489647,22.3177083 98.813548,22.2291667 99.094798,22.125 L99.094798,24.140625 C98.7927147,24.2760417 98.3734438,24.390625 97.8369855,24.484375 C97.3005272,24.578125 96.7770897,24.625 96.266673,24.625 C95.360423,24.625 94.5375063,24.4661458 93.797923,24.1484375 C93.0583397,23.8307292 92.4671938,23.2916667 92.0244855,22.53125 C91.5817772,21.7708333 91.360423,20.71875 91.360423,19.375 L91.360423,9.21875 L88.922923,9.21875 L88.922923,7.953125 L91.376048,6.9375 L92.407298,3.21875 L93.969798,3.21875 L93.969798,7.1875 L98.985423,7.1875 L98.985423,9.21875 L93.969798,9.21875 L93.969798,19.296875 C93.969798,20.3697917 94.2171938,21.171875 94.7119855,21.703125 C95.2067772,22.234375 95.8656313,22.5 96.688548,22.5 Z" id="Path"></path>
                    <path d="M109.782508,6.875 C111.240841,6.875 112.490841,7.19791667 113.532508,7.84375 C114.574174,8.48958333 115.371049,9.39322917 115.923133,10.5546875 C116.475216,11.7161458 116.751258,13.0729167 116.751258,14.625 L116.751258,16.234375 L104.923133,16.234375 C104.954383,18.2447917 105.454383,19.7760417 106.423133,20.828125 C107.391883,21.8802083 108.756466,22.40625 110.516883,22.40625 C111.600216,22.40625 112.558549,22.3072917 113.391883,22.109375 C114.225216,21.9114583 115.089799,21.6197917 115.985633,21.234375 L115.985633,23.515625 C115.121049,23.9010417 114.264278,24.1822917 113.41532,24.359375 C112.566362,24.5364583 111.563758,24.625 110.407508,24.625 C108.761674,24.625 107.326778,24.2890625 106.10282,23.6171875 C104.878862,22.9453125 103.928341,21.9583333 103.251258,20.65625 C102.574174,19.3541667 102.235633,17.7604167 102.235633,15.875 C102.235633,14.03125 102.545528,12.4348958 103.16532,11.0859375 C103.785112,9.73697917 104.660112,8.69791667 105.79032,7.96875 C106.920528,7.23958333 108.251258,6.875 109.782508,6.875 Z M109.751258,9 C108.365841,9 107.261674,9.453125 106.438758,10.359375 C105.615841,11.265625 105.126258,12.53125 104.970008,14.15625 L114.032508,14.15625 C114.022091,13.1354167 113.863237,12.2369792 113.555945,11.4609375 C113.248653,10.6848958 112.782508,10.0807292 112.157508,9.6484375 C111.532508,9.21614583 110.730424,9 109.751258,9 Z" id="Shape"></path>
                    <path d="M132.860842,19.625 C132.860842,20.71875 132.587405,21.6380208 132.04053,22.3828125 C131.493655,23.1276042 130.712405,23.6875 129.69678,24.0625 C128.681155,24.4375 127.470217,24.625 126.063967,24.625 C124.866051,24.625 123.829592,24.53125 122.954592,24.34375 C122.079592,24.15625 121.313967,23.890625 120.657717,23.546875 L120.657717,21.15625 C121.355634,21.5 122.188967,21.8125 123.157717,22.09375 C124.126467,22.375 125.116051,22.515625 126.126467,22.515625 C127.605634,22.515625 128.678551,22.2760417 129.345217,21.796875 C130.011884,21.3177083 130.345217,20.6666667 130.345217,19.84375 C130.345217,19.375 130.212405,18.9609375 129.94678,18.6015625 C129.681155,18.2421875 129.235842,17.8932292 128.610842,17.5546875 C127.985842,17.2161458 127.121259,16.84375 126.017092,16.4375 C124.923342,16.0208333 123.97803,15.6067708 123.181155,15.1953125 C122.38428,14.7838542 121.769696,14.28125 121.337405,13.6875 C120.905113,13.09375 120.688967,12.3229167 120.688967,11.375 C120.688967,9.92708333 121.274905,8.81510417 122.44678,8.0390625 C123.618655,7.26302083 125.157717,6.875 127.063967,6.875 C128.095217,6.875 129.061363,6.9765625 129.962405,7.1796875 C130.863446,7.3828125 131.704592,7.65625 132.485842,8 L131.610842,10.078125 C130.902509,9.77604167 130.147301,9.52083333 129.345217,9.3125 C128.543134,9.10416667 127.725426,9 126.892092,9 C125.694176,9 124.774905,9.19791667 124.13428,9.59375 C123.493655,9.98958333 123.173342,10.53125 123.173342,11.21875 C123.173342,11.75 123.32178,12.1875 123.618655,12.53125 C123.91553,12.875 124.392092,13.1979167 125.048342,13.5 C125.704592,13.8020833 126.569176,14.15625 127.642092,14.5625 C128.715009,14.9583333 129.642092,15.3671875 130.423342,15.7890625 C131.204592,16.2109375 131.806155,16.7213542 132.22803,17.3203125 C132.649905,17.9192708 132.860842,18.6875 132.860842,19.625 Z" id="Path"></path>
                </g>
                <path id="Line" d="M459.5,106.5 L456.990834,133.215241 L448.503,127.926 L418.197377,176.557786 L417.139591,178.255163 L413.744837,176.139591 L414.802623,174.442214 L445.109,125.81 L436.622308,120.521811 L459.5,106.5 Z" fill="#FFFFFF" fill-rule="nonzero"></path>
                <path id="Line-Copy" d="M585.483095,177.700147 L611,186 L589.049974,201.433612 L587.563,191.544 L524.79724,200.977789 L522.819451,201.275029 L522.224971,197.319451 L524.20276,197.022211 L586.969,187.589 L585.483095,177.700147 Z" fill="#FFFFFF" fill-rule="nonzero"></path>
                <path id="Line-Copy-2" d="M438.392279,246.237632 L440.077323,247.314956 L511.356,292.887 L516.743409,284.461853 L530.5,307.5 L503.815528,304.682385 L509.202,296.256 L437.922677,250.685044 L436.237632,249.607721 L438.392279,246.237632 Z" fill="#FFFFFF" fill-rule="nonzero"></path>
                <path id="Line-Copy-3" d="M355.394043,252.737245 L358.762755,254.894043 L357.684356,256.578399 L318.124,318.366 L326.546923,323.758118 L303.5,337.5 L306.334648,310.817332 L314.756,316.209 L354.315644,254.421601 L355.394043,252.737245 Z" fill="#FFFFFF" fill-rule="nonzero"></path>
                <path id="Line-Copy-4" d="M268.947989,230.570324 L269.929676,234.447989 L267.990844,234.938833 L212.256,249.048 L214.711055,258.742872 L188.5,253 L208.820931,235.476879 L211.275,245.171 L267.009156,231.061167 L268.947989,230.570324 Z" fill="#FFFFFF" fill-rule="nonzero"></path>
                <path id="Line-Copy-5" d="M237.33139,148.223388 L232.951,157.213 L289.375939,184.70202 L291.173919,185.577959 L289.422041,189.173919 L287.624061,188.29798 L231.2,160.809 L226.820124,169.799145 L210.5,148.5 L237.33139,148.223388 Z" fill="#FFFFFF" fill-rule="nonzero"></path>
                <path id="Line-Copy-6" d="M313.5,109.5 L332.729455,128.214381 L323.286,131.505 L338.388607,174.841849 L339.046758,176.730456 L335.269544,178.046758 L334.611393,176.158151 L319.508,132.821 L310.066169,136.112193 L313.5,109.5 Z" fill="#FFFFFF" fill-rule="nonzero"></path>
            </g>
        </g>
    </g>
</svg>