<?xml version="1.0" encoding="UTF-8"?>
<svg width="833px" height="452px" viewBox="0 0 833 452" version="1.1" xmlns="http://www.w3.org/2000/svg" xmlns:xlink="http://www.w3.org/1999/xlink">
    <title>Group</title>
    <defs>
        <linearGradient x1="84.0874216%" y1="37.6133382%" x2="10.5897923%" y2="59.5246443%" id="linearGradient-1">
            <stop stop-color="#8E4596" offset="0%"></stop>
            <stop stop-color="#3B3B5A" offset="100%"></stop>
        </linearGradient>
        <rect id="path-2" x="0" y="0" width="832" height="452" rx="36"></rect>
    </defs>
    <g id="services" stroke="none" stroke-width="1" fill="none" fill-rule="evenodd">
        <g id="Desktop-HD" transform="translate(-165.000000, -704.000000)">
            <g id="Group" transform="translate(165.500000, 704.000000)">
                <g id="Rectangle">
                    <use fill="#D8D8D8" xlink:href="#path-2"></use>
                    <use fill="url(#linearGradient-1)" xlink:href="#path-2"></use>
                </g>
                <text id="shaack.com" font-family="OpenSans-Bold, Open Sans" font-size="37" font-weight="bold" letter-spacing="0.7228986" fill="#FFFFFF">
                    <tspan x="288" y="226">shaack.com</tspan>
                </text>
                <text id="consulting" font-family="OpenSans-Regular, Open Sans" font-size="32" font-weight="normal" letter-spacing="0.6252096" fill="#FFFFFF">
                    <tspan x="434" y="84">consulting</tspan>
                </text>
                <text id="support" font-family="OpenSans-Regular, Open Sans" font-size="32" font-weight="normal" letter-spacing="0.6252096" fill="#FFFFFF">
                    <tspan x="636" y="191">support</tspan>
                </text>
                <text id="development" font-family="OpenSans-Regular, Open Sans" font-size="32" font-weight="normal" letter-spacing="0.6252096" fill="#FFFFFF">
                    <tspan x="526" y="356">development</tspan>
                </text>
                <text id="maintainance" font-family="OpenSans-Regular, Open Sans" font-size="32" font-weight="normal" letter-spacing="0.6252096" fill="#FFFFFF">
                    <tspan x="199.5" y="385">maintainance</tspan>
                </text>
                <text id="planning" font-family="OpenSans-Regular, Open Sans" font-size="32" font-weight="normal" letter-spacing="0.6252096" fill="#FFFFFF">
                    <tspan x="53" y="287">planning</tspan>
                </text>
                <text id="apps" font-family="OpenSans-Regular, Open Sans" font-size="32" font-weight="normal" letter-spacing="0.6252096" fill="#FFFFFF">
                    <tspan x="113" y="137.5">apps</tspan>
                </text>
                <text id="websites" font-family="OpenSans-Regular, Open Sans" font-size="32" font-weight="normal" letter-spacing="0.6252096" fill="#FFFFFF">
                    <tspan x="232" y="88">websites</tspan>
                </text>
                <path id="Line" d="M459.5,106.5 L456.990834,133.215241 L448.503,127.926 L418.197377,176.557786 L417.139591,178.255163 L413.744837,176.139591 L414.802623,174.442214 L445.109,125.81 L436.622308,120.521811 L459.5,106.5 Z" fill="#FFFFFF" fill-rule="nonzero"></path>
                <path id="Line-Copy" d="M585.483095,177.700147 L611,186 L589.049974,201.433612 L587.563,191.544 L524.79724,200.977789 L522.819451,201.275029 L522.224971,197.319451 L524.20276,197.022211 L586.969,187.589 L585.483095,177.700147 Z" fill="#FFFFFF" fill-rule="nonzero"></path>
                <path id="Line-Copy-2" d="M438.392279,246.237632 L440.077323,247.314956 L511.356,292.887 L516.743409,284.461853 L530.5,307.5 L503.815528,304.682385 L509.202,296.256 L437.922677,250.685044 L436.237632,249.607721 L438.392279,246.237632 Z" fill="#FFFFFF" fill-rule="nonzero"></path>
                <path id="Line-Copy-3" d="M355.394043,252.737245 L358.762755,254.894043 L357.684356,256.578399 L318.124,318.366 L326.546923,323.758118 L303.5,337.5 L306.334648,310.817332 L314.756,316.209 L354.315644,254.421601 L355.394043,252.737245 Z" fill="#FFFFFF" fill-rule="nonzero"></path>
                <path id="Line-Copy-4" d="M268.947989,230.570324 L269.929676,234.447989 L267.990844,234.938833 L212.256,249.048 L214.711055,258.742872 L188.5,253 L208.820931,235.476879 L211.275,245.171 L267.009156,231.061167 L268.947989,230.570324 Z" fill="#FFFFFF" fill-rule="nonzero"></path>
                <path id="Line-Copy-5" d="M237.33139,148.223388 L232.951,157.213 L289.375939,184.70202 L291.173919,185.577959 L289.422041,189.173919 L287.624061,188.29798 L231.2,160.809 L226.820124,169.799145 L210.5,148.5 L237.33139,148.223388 Z" fill="#FFFFFF" fill-rule="nonzero"></path>
                <path id="Line-Copy-6" d="M313.5,109.5 L332.729455,128.214381 L323.286,131.505 L338.388607,174.841849 L339.046758,176.730456 L335.269544,178.046758 L334.611393,176.158151 L319.508,132.821 L310.066169,136.112193 L313.5,109.5 Z" fill="#FFFFFF" fill-rule="nonzero"></path>
            </g>
        </g>
    </g>
</svg>